STARTFONT 2.1
COMMENT
COMMENT Converted from OpenType font "cor1.ttf" by "otf2bdf 3.0".
COMMENT
FONT -FreeType-Px437 Cordata PPC 21-Medium-R-Normal--58-580-72-72-P-201-ISO10646-1
SIZE 58 72 72
FONTBOUNDINGBOX 29 47 0 -11
STARTPROPERTIES 19
FOUNDRY "FreeType"
FAMILY_NAME "Px437 Cordata PPC 21"
WEIGHT_NAME "Medium"
SLANT "R"
SETWIDTH_NAME "Normal"
ADD_STYLE_NAME ""
PIXEL_SIZE 58
POINT_SIZE 580
RESOLUTION_X 72
RESOLUTION_Y 72
SPACING "P"
AVERAGE_WIDTH 201
CHARSET_REGISTRY "ISO10646"
CHARSET_ENCODING "1"
FONT_ASCENT 36
FONT_DESCENT 10
COPYRIGHT "Outline (vector) version by VileR, 2020"
_OTF_FONTFILE "cor1.ttf"
_OTF_PSNAME "Px437_Cordata_PPC-21"
ENDPROPERTIES
CHARS 288
STARTCHAR 0000
ENCODING 0
SWIDTH 500 0
DWIDTH 29 0
BBX 0 0 0 0
BITMAP
ENDCHAR
STARTCHAR 0001
ENCODING 1
SWIDTH 500 0
DWIDTH 29 0
BBX 21 33 4 0
BITMAP
1FFFC0
1FFFC0
1FFFC0
1FFFC0
E00038
E00038
E00038
E00038
E78F38
E78F38
E78F38
E00038
E00038
E00038
E00038
E00038
E00038
E00038
E7FF38
E7FF38
E7FF38
E7FF38
E07038
E07038
E07038
E07038
E00038
E00038
E00038
1FFFC0
1FFFC0
1FFFC0
1FFFC0
ENDCHAR
STARTCHAR 0002
ENCODING 2
SWIDTH 500 0
DWIDTH 29 0
BBX 21 33 4 0
BITMAP
1FFFC0
1FFFC0
1FFFC0
1FFFC0
FFFFF8
FFFFF8
FFFFF8
FFFFF8
F870F8
F870F8
F870F8
FFFFF8
FFFFF8
FFFFF8
FFFFF8
FFFFF8
FFFFF8
FFFFF8
FFFFF8
F800F8
F800F8
F800F8
FF8FF8
FF8FF8
FF8FF8
FF8FF8
FFFFF8
FFFFF8
FFFFF8
1FFFC0
1FFFC0
1FFFC0
1FFFC0
ENDCHAR
STARTCHAR 0003
ENCODING 3
SWIDTH 500 0
DWIDTH 29 0
BBX 21 29 4 0
BITMAP
1F8FC0
1F8FC0
1F8FC0
1F8FC0
7FFFF0
7FFFF0
7FFFF0
FFFFF8
FFFFF8
FFFFF8
FFFFF8
FFFFF8
FFFFF8
FFFFF8
FFFFF8
7FFFF0
7FFFF0
7FFFF0
1FFFC0
1FFFC0
1FFFC0
1FFFC0
01FC00
01FC00
01FC00
007000
007000
007000
007000
ENDCHAR
STARTCHAR 0004
ENCODING 4
SWIDTH 500 0
DWIDTH 29 0
BBX 21 25 4 4
BITMAP
007000
007000
007000
007000
01FC00
01FC00
01FC00
1FFFC0
1FFFC0
1FFFC0
1FFFC0
FFFFF8
FFFFF8
FFFFF8
FFFFF8
1FFFC0
1FFFC0
1FFFC0
01FC00
01FC00
01FC00
01FC00
007000
007000
007000
ENDCHAR
STARTCHAR 0005
ENCODING 5
SWIDTH 500 0
DWIDTH 29 0
BBX 21 33 4 0
BITMAP
007000
007000
007000
007000
07FF00
07FF00
07FF00
07FF00
07FF00
07FF00
07FF00
FE03F8
FE03F8
FE03F8
FE03F8
FE03F8
FE03F8
FE03F8
FE03F8
FE03F8
FE03F8
FE03F8
01FC00
01FC00
01FC00
01FC00
01FC00
01FC00
01FC00
07FF00
07FF00
07FF00
07FF00
ENDCHAR
STARTCHAR 0006
ENCODING 6
SWIDTH 500 0
DWIDTH 29 0
BBX 21 33 4 0
BITMAP
007000
007000
007000
007000
01FC00
01FC00
01FC00
01FC00
07FF00
07FF00
07FF00
7FFFF0
7FFFF0
7FFFF0
7FFFF0
FFFFF8
FFFFF8
FFFFF8
FFFFF8
7FFFF0
7FFFF0
7FFFF0
007000
007000
007000
007000
007000
007000
007000
07FF00
07FF00
07FF00
07FF00
ENDCHAR
STARTCHAR 0007
ENCODING 7
SWIDTH 500 0
DWIDTH 29 0
BBX 15 11 7 7
BITMAP
3FF8
3FF8
3FF8
FFFE
FFFE
FFFE
FFFE
3FF8
3FF8
3FF8
3FF8
ENDCHAR
STARTCHAR 0008
ENCODING 8
SWIDTH 500 0
DWIDTH 29 0
BBX 29 47 0 -11
BITMAP
FFFFFFF8
FFFFFFF8
FFFFFFF8
FFFFFFF8
FFFFFFF8
FFFFFFF8
FFFFFFF8
FFFFFFF8
FFFFFFF8
FFFFFFF8
FFFFFFF8
FFFFFFF8
FFFFFFF8
FFFFFFF8
FFFFFFF8
FFFFFFF8
FFFFFFF8
FFFFFFF8
FF800FF8
FF800FF8
FF800FF8
FF800FF8
FE0003F8
FE0003F8
FE0003F8
FF800FF8
FF800FF8
FF800FF8
FF800FF8
FFFFFFF8
FFFFFFF8
FFFFFFF8
FFFFFFF8
FFFFFFF8
FFFFFFF8
FFFFFFF8
FFFFFFF8
FFFFFFF8
FFFFFFF8
FFFFFFF8
FFFFFFF8
FFFFFFF8
FFFFFFF8
FFFFFFF8
FFFFFFF8
FFFFFFF8
FFFFFFF8
ENDCHAR
STARTCHAR 0009
ENCODING 9
SWIDTH 500 0
DWIDTH 29 0
BBX 21 18 4 4
BITMAP
07FF00
07FF00
07FF00
07FF00
7800F0
7800F0
7800F0
F800F8
E00038
E00038
E00038
7800F0
7800F0
7800F0
7800F0
07FF00
07FF00
07FF00
ENDCHAR
STARTCHAR 000A
ENCODING 10
SWIDTH 500 0
DWIDTH 29 0
BBX 29 47 0 -11
BITMAP
FFFFFFF8
FFFFFFF8
FFFFFFF8
FFFFFFF8
FFFFFFF8
FFFFFFF8
FFFFFFF8
FFFFFFF8
FFFFFFF8
FFFFFFF8
FFFFFFF8
FFFFFFF8
FFFFFFF8
FFFFFFF8
FF800FF8
FF800FF8
FF800FF8
FF800FF8
F87FF0F8
F87FF0F8
F87FF0F8
F9FFFCF8
F1FFFC78
F1FFFC78
F1FFFC78
F87FF0F8
F87FF0F8
F87FF0F8
F87FF0F8
FF800FF8
FF800FF8
FF800FF8
FFFFFFF8
FFFFFFF8
FFFFFFF8
FFFFFFF8
FFFFFFF8
FFFFFFF8
FFFFFFF8
FFFFFFF8
FFFFFFF8
FFFFFFF8
FFFFFFF8
FFFFFFF8
FFFFFFF8
FFFFFFF8
FFFFFFF8
ENDCHAR
STARTCHAR 000B
ENCODING 11
SWIDTH 500 0
DWIDTH 29 0
BBX 21 33 4 0
BITMAP
003FF0
003FF0
003FF0
003FF0
000F38
000F38
000F38
000F38
007000
007000
007000
078000
078000
078000
078000
1FFC00
1FFC00
1FFC00
7FFFC0
7803C0
7803C0
7803C0
E000F0
E000F0
E000F0
E000F0
7803C0
7803C0
7803C0
07FC00
07FC00
07FC00
07FC00
ENDCHAR
STARTCHAR 000C
ENCODING 12
SWIDTH 500 0
DWIDTH 29 0
BBX 19 33 5 0
BITMAP
03F800
03F800
03F800
03F800
3C0780
3C0780
3C0780
3C0780
F001E0
F001E0
F001E0
3C0780
3C0780
3C0780
3C0780
03F800
03F800
03F800
03F800
00E000
00E000
00E000
3FFF80
3FFF80
3FFF80
3FFF80
00E000
00E000
00E000
00E000
00E000
00E000
00E000
ENDCHAR
STARTCHAR 000D
ENCODING 13
SWIDTH 500 0
DWIDTH 29 0
BBX 21 33 4 0
BITMAP
007F00
007F00
007F00
007F00
0070F0
0070F0
0070F0
0070F0
007038
007038
007038
007038
007038
007038
007038
0070F0
0070F0
0070F0
0070F0
007000
007000
007000
7FF000
7FF000
7FF000
7FF000
FFF000
FFF000
FFF000
7FE000
7FE000
7FE000
7FE000
ENDCHAR
STARTCHAR 000E
ENCODING 14
SWIDTH 500 0
DWIDTH 29 0
BBX 21 33 4 0
BITMAP
07F000
07F000
07F000
07F000
078F00
078F00
078F00
078F00
0780F0
0780F0
0780F0
078038
078038
078038
078038
7F8038
7F8038
7F8038
FF8038
FF8038
FF8038
FF8038
7E03F8
7E03F8
7E03F8
7E03F8
000FF8
000FF8
000FF8
0003F0
0003F0
0003F0
0003F0
ENDCHAR
STARTCHAR 000F
ENCODING 15
SWIDTH 500 0
DWIDTH 29 0
BBX 21 33 4 0
BITMAP
007000
007000
007000
007000
007000
007000
007000
007000
7870F0
7870F0
7870F0
01FC00
01FC00
01FC00
01FC00
FF8FF8
FF8FF8
FF8FF8
FFFFF8
01FC00
01FC00
01FC00
7870F0
7870F0
7870F0
7870F0
007000
007000
007000
007000
007000
007000
007000
ENDCHAR
STARTCHAR 0010
ENCODING 16
SWIDTH 500 0
DWIDTH 29 0
BBX 21 33 4 0
BITMAP
E00000
E00000
E00000
E00000
FE0000
FE0000
FE0000
FE0000
FFE000
FFE000
FFE000
FFFF00
FFFF00
FFFF00
FFFF00
FFFFF8
FFFFF8
FFFFF8
FFFFF8
FFFF00
FFFF00
FFFF00
FFE000
FFE000
FFE000
FFE000
FE0000
FE0000
FE0000
E00000
E00000
E00000
E00000
ENDCHAR
STARTCHAR 0011
ENCODING 17
SWIDTH 500 0
DWIDTH 29 0
BBX 21 33 4 0
BITMAP
000038
000038
000038
000038
0003F8
0003F8
0003F8
0003F8
003FF8
003FF8
003FF8
07FFF8
07FFF8
07FFF8
07FFF8
FFFFF8
FFFFF8
FFFFF8
FFFFF8
07FFF8
07FFF8
07FFF8
003FF8
003FF8
003FF8
003FF8
0003F8
0003F8
0003F8
000038
000038
000038
000038
ENDCHAR
STARTCHAR 0012
ENCODING 18
SWIDTH 500 0
DWIDTH 29 0
BBX 15 33 7 0
BITMAP
0380
0380
0380
0380
0FE0
0FE0
0FE0
0FE0
FFFE
FFFE
FFFE
0380
0380
0380
0380
0380
0380
0380
0380
0380
0380
0380
FFFE
FFFE
FFFE
FFFE
0FE0
0FE0
0FE0
0380
0380
0380
0380
ENDCHAR
STARTCHAR 0013
ENCODING 19
SWIDTH 500 0
DWIDTH 29 0
BBX 19 33 5 0
BITMAP
F001E0
F001E0
F001E0
F001E0
F001E0
F001E0
F001E0
F001E0
F001E0
F001E0
F001E0
F001E0
F001E0
F001E0
F001E0
F001E0
F001E0
F001E0
F001E0
F001E0
F001E0
F001E0
000000
000000
000000
000000
F001E0
F001E0
F001E0
F001E0
F001E0
F001E0
F001E0
ENDCHAR
STARTCHAR 0014
ENCODING 20
SWIDTH 500 0
DWIDTH 29 0
BBX 21 33 4 0
BITMAP
07FFF8
07FFF8
07FFF8
07FFF8
783C38
783C38
783C38
783C38
E03C38
E03C38
E03C38
783C38
783C38
783C38
783C38
07FC38
07FC38
07FC38
07FC38
003C38
003C38
003C38
003C38
003C38
003C38
003C38
003C38
003C38
003C38
003C38
003C38
003C38
003C38
ENDCHAR
STARTCHAR 0015
ENCODING 21
SWIDTH 500 0
DWIDTH 29 0
BBX 21 33 4 0
BITMAP
07FF00
07FF00
07FF00
07FF00
1E0000
1E0000
1E0000
1E0000
1FFF00
1FFF00
1FFF00
7800F0
7800F0
7800F0
7800F0
E00038
E00038
E00038
F800F8
7800F0
7800F0
7800F0
07FFC0
07FFC0
07FFC0
07FFC0
0003C0
0003C0
0003C0
07FF00
07FF00
07FF00
07FF00
ENDCHAR
STARTCHAR 0016
ENCODING 22
SWIDTH 500 0
DWIDTH 29 0
BBX 21 11 4 0
BITMAP
FFFFF8
FFFFF8
FFFFF8
FFFFF8
FFFFF8
FFFFF8
FFFFF8
FFFFF8
FFFFF8
FFFFF8
FFFFF8
ENDCHAR
STARTCHAR 0017
ENCODING 23
SWIDTH 500 0
DWIDTH 29 0
BBX 15 37 7 -4
BITMAP
0380
0380
0380
0380
0FE0
0FE0
0FE0
0FE0
FFFE
FFFE
FFFE
0380
0380
0380
0380
0380
0380
0380
0380
0380
0380
0380
FFFE
FFFE
FFFE
FFFE
0FE0
0FE0
0FE0
0380
0380
0380
0380
FFFE
FFFE
FFFE
FFFE
ENDCHAR
STARTCHAR 0018
ENCODING 24
SWIDTH 500 0
DWIDTH 29 0
BBX 15 33 7 0
BITMAP
0380
0380
0380
0380
0FE0
0FE0
0FE0
0FE0
FFFE
FFFE
FFFE
0380
0380
0380
0380
0380
0380
0380
0380
0380
0380
0380
0380
0380
0380
0380
0380
0380
0380
0380
0380
0380
0380
ENDCHAR
STARTCHAR 0019
ENCODING 25
SWIDTH 500 0
DWIDTH 29 0
BBX 15 33 7 0
BITMAP
0380
0380
0380
0380
0380
0380
0380
0380
0380
0380
0380
0380
0380
0380
0380
0380
0380
0380
0380
0380
0380
0380
FFFE
FFFE
FFFE
FFFE
0FE0
0FE0
0FE0
0380
0380
0380
0380
ENDCHAR
STARTCHAR 001A
ENCODING 26
SWIDTH 500 0
DWIDTH 29 0
BBX 21 18 4 7
BITMAP
003C00
003C00
003C00
0003C0
0003C0
0003C0
0003C0
FFFFF8
FFFFF8
FFFFF8
FFFFF8
0003C0
0003C0
0003C0
003C00
003C00
003C00
003C00
ENDCHAR
STARTCHAR 001B
ENCODING 27
SWIDTH 500 0
DWIDTH 29 0
BBX 21 18 4 7
BITMAP
01E000
01E000
01E000
1E0000
1E0000
1E0000
1E0000
FFFFF8
FFFFF8
FFFFF8
FFFFF8
1E0000
1E0000
1E0000
01E000
01E000
01E000
01E000
ENDCHAR
STARTCHAR 001C
ENCODING 28
SWIDTH 500 0
DWIDTH 29 0
BBX 21 15 4 7
BITMAP
E00000
E00000
E00000
E00000
E00000
E00000
E00000
E00000
E00000
E00000
E00000
FFFFF8
FFFFF8
FFFFF8
FFFFF8
ENDCHAR
STARTCHAR 001D
ENCODING 29
SWIDTH 500 0
DWIDTH 29 0
BBX 25 18 2 7
BITMAP
01E3C000
01E3C000
01E3C000
1FE3FC00
1FE3FC00
1FE3FC00
1FE3FC00
FFFFFF80
FFFFFF80
FFFFFF80
FFFFFF80
1FE3FC00
1FE3FC00
1FE3FC00
01E3C000
01E3C000
01E3C000
01E3C000
ENDCHAR
STARTCHAR 001E
ENCODING 30
SWIDTH 500 0
DWIDTH 29 0
BBX 21 21 4 4
BITMAP
007000
007000
007000
01FC00
01FC00
01FC00
01FC00
07FF00
07FF00
07FF00
1FFFC0
1FFFC0
1FFFC0
1FFFC0
7FFFF0
7FFFF0
7FFFF0
7FFFF0
FFFFF8
FFFFF8
FFFFF8
ENDCHAR
STARTCHAR 001F
ENCODING 31
SWIDTH 500 0
DWIDTH 29 0
BBX 21 21 4 4
BITMAP
FFFFF8
FFFFF8
FFFFF8
7FFFF0
7FFFF0
7FFFF0
7FFFF0
1FFFC0
1FFFC0
1FFFC0
1FFFC0
07FF00
07FF00
07FF00
01FC00
01FC00
01FC00
01FC00
007000
007000
007000
ENDCHAR
STARTCHAR 0020
ENCODING 32
SWIDTH 500 0
DWIDTH 29 0
BBX 0 0 0 0
BITMAP
ENDCHAR
STARTCHAR 0021
ENCODING 33
SWIDTH 500 0
DWIDTH 29 0
BBX 3 33 13 0
BITMAP
E0
E0
E0
E0
E0
E0
E0
E0
E0
E0
E0
E0
E0
E0
E0
E0
E0
E0
E0
E0
E0
E0
00
00
00
00
E0
E0
E0
E0
E0
E0
E0
ENDCHAR
STARTCHAR 0022
ENCODING 34
SWIDTH 500 0
DWIDTH 29 0
BBX 13 11 7 22
BITMAP
F078
F078
F078
F078
F078
F078
F078
F078
F078
F078
F078
ENDCHAR
STARTCHAR 0023
ENCODING 35
SWIDTH 500 0
DWIDTH 29 0
BBX 21 25 4 4
BITMAP
1E03C0
1E03C0
1E03C0
1E03C0
1E03C0
1E03C0
1E03C0
FFFFF8
FFFFF8
FFFFF8
FFFFF8
1E03C0
1E03C0
1E03C0
FFFFF8
FFFFF8
FFFFF8
FFFFF8
1E03C0
1E03C0
1E03C0
1E03C0
1E03C0
1E03C0
1E03C0
ENDCHAR
STARTCHAR 0024
ENCODING 36
SWIDTH 500 0
DWIDTH 29 0
BBX 21 33 4 0
BITMAP
007000
007000
007000
007000
1FFFF0
1FFFF0
1FFFF0
1FFFF0
E07000
E07000
E07000
E07000
E07000
E07000
E07000
1FFFC0
1FFFC0
1FFFC0
1FFFF8
007038
007038
007038
007038
007038
007038
007038
7FFFC0
7FFFC0
7FFFC0
007000
007000
007000
007000
ENDCHAR
STARTCHAR 0025
ENCODING 37
SWIDTH 500 0
DWIDTH 29 0
BBX 21 29 4 0
BITMAP
1F8000
1F8000
1F8000
1F8000
E07038
E07038
E07038
1F83C0
1F83C0
1F83C0
1F83C0
003C00
003C00
003C00
01FC00
01E000
01E000
01E000
1E0FC0
1E0FC0
1E0FC0
1E0FC0
E07038
E07038
E07038
000FC0
000FC0
000FC0
000FC0
ENDCHAR
STARTCHAR 0026
ENCODING 38
SWIDTH 500 0
DWIDTH 29 0
BBX 21 33 4 0
BITMAP
1FFC00
1FFC00
1FFC00
1FFC00
E00F00
E00F00
E00F00
E00F00
E00F00
E00F00
E00F00
783C00
783C00
783C00
783C00
1FF000
1FF000
1FF000
7FFC38
783C38
783C38
783C38
E003F0
E003F0
E003F0
E003F0
E003F0
E003F0
E003F0
1FFC38
1FFC38
1FFC38
1FFC38
ENDCHAR
STARTCHAR 0027
ENCODING 39
SWIDTH 500 0
DWIDTH 29 0
BBX 7 15 9 18
BITMAP
3E
3E
3E
3E
3E
3E
3E
3E
3C
3C
3C
F0
F0
F0
F0
ENDCHAR
STARTCHAR 0028
ENCODING 40
SWIDTH 500 0
DWIDTH 29 0
BBX 9 33 9 0
BITMAP
0780
0780
0780
0780
0E00
0E00
0E00
0E00
3C00
3C00
3C00
F000
F000
F000
F000
F000
F000
F000
F000
F000
F000
F000
3C00
3C00
3C00
3C00
0E00
0E00
0E00
0780
0780
0780
0780
ENDCHAR
STARTCHAR 0029
ENCODING 41
SWIDTH 500 0
DWIDTH 29 0
BBX 9 33 9 0
BITMAP
F000
F000
F000
F000
3C00
3C00
3C00
3C00
0E00
0E00
0E00
0780
0780
0780
0780
0780
0780
0780
0780
0780
0780
0780
0E00
0E00
0E00
0E00
3C00
3C00
3C00
F000
F000
F000
F000
ENDCHAR
STARTCHAR 002A
ENCODING 42
SWIDTH 500 0
DWIDTH 29 0
BBX 21 25 4 4
BITMAP
007000
007000
007000
007000
E07038
E07038
E07038
1E73C0
1E73C0
1E73C0
1E73C0
01FC00
01FC00
01FC00
1FFFC0
1E73C0
1E73C0
1E73C0
E07038
E07038
E07038
E07038
007000
007000
007000
ENDCHAR
STARTCHAR 002B
ENCODING 43
SWIDTH 500 0
DWIDTH 29 0
BBX 21 25 4 4
BITMAP
007000
007000
007000
007000
007000
007000
007000
007000
007000
007000
007000
FFFFF8
FFFFF8
FFFFF8
FFFFF8
007000
007000
007000
007000
007000
007000
007000
007000
007000
007000
ENDCHAR
STARTCHAR 002C
ENCODING 44
SWIDTH 500 0
DWIDTH 29 0
BBX 7 15 9 -11
BITMAP
3E
3E
3E
3E
3E
3E
3E
3E
3C
3C
3C
F0
F0
F0
F0
ENDCHAR
STARTCHAR 002D
ENCODING 45
SWIDTH 500 0
DWIDTH 29 0
BBX 21 4 4 14
BITMAP
FFFFF8
FFFFF8
FFFFF8
FFFFF8
ENDCHAR
STARTCHAR 002E
ENCODING 46
SWIDTH 500 0
DWIDTH 29 0
BBX 5 7 11 0
BITMAP
F8
F8
F8
F8
F8
F8
F8
ENDCHAR
STARTCHAR 002F
ENCODING 47
SWIDTH 500 0
DWIDTH 29 0
BBX 19 33 5 0
BITMAP
0001E0
0001E0
0001E0
0001E0
000780
000780
000780
000780
001E00
001E00
001E00
007800
007800
007800
007800
00E000
00E000
00E000
03E000
03C000
03C000
03C000
0F0000
0F0000
0F0000
0F0000
3C0000
3C0000
3C0000
F00000
F00000
F00000
F00000
ENDCHAR
STARTCHAR 0030
ENCODING 48
SWIDTH 500 0
DWIDTH 29 0
BBX 21 33 4 0
BITMAP
7FFFF0
7FFFF0
7FFFF0
7FFFF0
E000F8
E000F8
E000F8
E000F8
E003F8
E003F8
E003F8
E03C38
E03C38
E03C38
E03C38
E1E038
E1E038
E1E038
FFE038
FE0038
FE0038
FE0038
F80038
F80038
F80038
F80038
E00038
E00038
E00038
7FFFF0
7FFFF0
7FFFF0
7FFFF0
ENDCHAR
STARTCHAR 0031
ENCODING 49
SWIDTH 500 0
DWIDTH 29 0
BBX 13 33 7 0
BITMAP
0F80
0F80
0F80
0F80
3F80
3F80
3F80
3F80
F380
F380
F380
0380
0380
0380
0380
0380
0380
0380
0380
0380
0380
0380
0380
0380
0380
0380
0380
0380
0380
3FF8
3FF8
3FF8
3FF8
ENDCHAR
STARTCHAR 0032
ENCODING 50
SWIDTH 500 0
DWIDTH 29 0
BBX 21 33 4 0
BITMAP
7FFFC0
7FFFC0
7FFFC0
7FFFC0
E00038
E00038
E00038
E00038
000038
000038
000038
0003C0
0003C0
0003C0
0003C0
003C00
003C00
003C00
01FC00
01E000
01E000
01E000
1E0000
1E0000
1E0000
1E0000
E00000
E00000
E00000
FFFFF8
FFFFF8
FFFFF8
FFFFF8
ENDCHAR
STARTCHAR 0033
ENCODING 51
SWIDTH 500 0
DWIDTH 29 0
BBX 21 33 4 0
BITMAP
7FFFC0
7FFFC0
7FFFC0
7FFFC0
E000F0
E000F0
E000F0
E000F0
000038
000038
000038
0000F0
0000F0
0000F0
0000F0
1FFF00
1FFF00
1FFF00
1FFFF0
0000F0
0000F0
0000F0
000038
000038
000038
000038
E000F0
E000F0
E000F0
7FFF00
7FFF00
7FFF00
7FFF00
ENDCHAR
STARTCHAR 0034
ENCODING 52
SWIDTH 500 0
DWIDTH 29 0
BBX 21 33 4 0
BITMAP
007FC0
007FC0
007FC0
007FC0
01E3C0
01E3C0
01E3C0
01E3C0
0783C0
0783C0
0783C0
1E03C0
1E03C0
1E03C0
1E03C0
7803C0
7803C0
7803C0
F803C0
E003C0
E003C0
E003C0
FFFFF8
FFFFF8
FFFFF8
FFFFF8
0003C0
0003C0
0003C0
0003C0
0003C0
0003C0
0003C0
ENDCHAR
STARTCHAR 0035
ENCODING 53
SWIDTH 500 0
DWIDTH 29 0
BBX 21 33 4 0
BITMAP
FFFFF8
FFFFF8
FFFFF8
FFFFF8
E00000
E00000
E00000
E00000
E00000
E00000
E00000
FFFF00
FFFF00
FFFF00
FFFF00
0000F0
0000F0
0000F0
0000F8
000038
000038
000038
000038
000038
000038
000038
0000F0
0000F0
0000F0
FFFF00
FFFF00
FFFF00
FFFF00
ENDCHAR
STARTCHAR 0036
ENCODING 54
SWIDTH 500 0
DWIDTH 29 0
BBX 21 33 4 0
BITMAP
01FF00
01FF00
01FF00
01FF00
1E0000
1E0000
1E0000
1E0000
780000
780000
780000
E00000
E00000
E00000
E00000
FFFF00
FFFF00
FFFF00
FFFFF0
E000F0
E000F0
E000F0
E00038
E00038
E00038
E00038
E000F0
E000F0
E000F0
1FFF00
1FFF00
1FFF00
1FFF00
ENDCHAR
STARTCHAR 0037
ENCODING 55
SWIDTH 500 0
DWIDTH 29 0
BBX 21 33 4 0
BITMAP
FFFFF8
FFFFF8
FFFFF8
FFFFF8
E00038
E00038
E00038
E00038
0000F0
0000F0
0000F0
0003C0
0003C0
0003C0
0003C0
000F00
000F00
000F00
003F00
003C00
003C00
003C00
007000
007000
007000
007000
01E000
01E000
01E000
078000
078000
078000
078000
ENDCHAR
STARTCHAR 0038
ENCODING 56
SWIDTH 500 0
DWIDTH 29 0
BBX 21 33 4 0
BITMAP
07FF00
07FF00
07FF00
07FF00
7800F0
7800F0
7800F0
7800F0
E00038
E00038
E00038
7800F0
7800F0
7800F0
7800F0
07FF00
07FF00
07FF00
7FFFF0
7800F0
7800F0
7800F0
E00038
E00038
E00038
E00038
7800F0
7800F0
7800F0
07FF00
07FF00
07FF00
07FF00
ENDCHAR
STARTCHAR 0039
ENCODING 57
SWIDTH 500 0
DWIDTH 29 0
BBX 21 33 4 0
BITMAP
07FFC0
07FFC0
07FFC0
07FFC0
780038
780038
780038
780038
E00038
E00038
E00038
780038
780038
780038
780038
07FFF8
07FFF8
07FFF8
07FFF8
000038
000038
000038
0000F0
0000F0
0000F0
0000F0
0003C0
0003C0
0003C0
01FC00
01FC00
01FC00
01FC00
ENDCHAR
STARTCHAR 003A
ENCODING 58
SWIDTH 500 0
DWIDTH 29 0
BBX 5 22 11 0
BITMAP
F8
F8
F8
F8
F8
F8
F8
F8
00
00
00
00
00
00
00
F8
F8
F8
F8
F8
F8
F8
ENDCHAR
STARTCHAR 003B
ENCODING 59
SWIDTH 500 0
DWIDTH 29 0
BBX 7 33 9 -11
BITMAP
3E
3E
3E
3E
3E
3E
3E
3E
00
00
00
00
00
00
00
3E
3E
3E
3E
3E
3E
3E
0E
0E
0E
0E
3C
3C
3C
F0
F0
F0
F0
ENDCHAR
STARTCHAR 003C
ENCODING 60
SWIDTH 500 0
DWIDTH 29 0
BBX 18 33 4 0
BITMAP
0003C0
0003C0
0003C0
0003C0
003C00
003C00
003C00
003C00
01E000
01E000
01E000
1E0000
1E0000
1E0000
1E0000
E00000
E00000
E00000
FE0000
1E0000
1E0000
1E0000
01E000
01E000
01E000
01E000
003C00
003C00
003C00
0003C0
0003C0
0003C0
0003C0
ENDCHAR
STARTCHAR 003D
ENCODING 61
SWIDTH 500 0
DWIDTH 29 0
BBX 21 11 4 11
BITMAP
FFFFF8
FFFFF8
FFFFF8
FFFFF8
000000
000000
000000
FFFFF8
FFFFF8
FFFFF8
FFFFF8
ENDCHAR
STARTCHAR 003E
ENCODING 62
SWIDTH 500 0
DWIDTH 29 0
BBX 18 33 7 0
BITMAP
F00000
F00000
F00000
F00000
0F0000
0F0000
0F0000
0F0000
01E000
01E000
01E000
001E00
001E00
001E00
001E00
0001C0
0001C0
0001C0
001FC0
001E00
001E00
001E00
01E000
01E000
01E000
01E000
0F0000
0F0000
0F0000
F00000
F00000
F00000
F00000
ENDCHAR
STARTCHAR 003F
ENCODING 63
SWIDTH 500 0
DWIDTH 29 0
BBX 21 33 4 0
BITMAP
1FFFF0
1FFFF0
1FFFF0
1FFFF0
E00038
E00038
E00038
E00038
E00038
E00038
E00038
0003C0
0003C0
0003C0
0003C0
003C00
003C00
003C00
007C00
007000
007000
007000
007000
007000
007000
007000
000000
000000
000000
007000
007000
007000
007000
ENDCHAR
STARTCHAR 0040
ENCODING 64
SWIDTH 500 0
DWIDTH 29 0
BBX 21 33 4 0
BITMAP
07FFF0
07FFF0
07FFF0
07FFF0
780038
780038
780038
780038
E07FF8
E07FF8
E07FF8
E1E038
E1E038
E1E038
E1E038
E1E038
E1E038
E1E038
E1FFF8
E07FF0
E07FF0
E07FF0
E00000
E00000
E00000
E00000
780000
780000
780000
1FFF00
1FFF00
1FFF00
1FFF00
ENDCHAR
STARTCHAR 0041
ENCODING 65
SWIDTH 500 0
DWIDTH 29 0
BBX 21 33 4 0
BITMAP
01FC00
01FC00
01FC00
01FC00
078F00
078F00
078F00
078F00
1E03C0
1E03C0
1E03C0
7800F0
7800F0
7800F0
7800F0
E00038
E00038
E00038
FFFFF8
FFFFF8
FFFFF8
FFFFF8
E00038
E00038
E00038
E00038
E00038
E00038
E00038
E00038
E00038
E00038
E00038
ENDCHAR
STARTCHAR 0042
ENCODING 66
SWIDTH 500 0
DWIDTH 29 0
BBX 21 33 4 0
BITMAP
FFFFC0
FFFFC0
FFFFC0
FFFFC0
7800F0
7800F0
7800F0
7800F0
780038
780038
780038
7800F0
7800F0
7800F0
7800F0
7FFFC0
7FFFC0
7FFFC0
7FFFF0
7800F0
7800F0
7800F0
780038
780038
780038
780038
7800F0
7800F0
7800F0
FFFFC0
FFFFC0
FFFFC0
FFFFC0
ENDCHAR
STARTCHAR 0043
ENCODING 67
SWIDTH 500 0
DWIDTH 29 0
BBX 21 33 4 0
BITMAP
01FFC0
01FFC0
01FFC0
01FFC0
1E0038
1E0038
1E0038
1E0038
780000
780000
780000
E00000
E00000
E00000
E00000
E00000
E00000
E00000
E00000
E00000
E00000
E00000
780000
780000
780000
780000
1E0038
1E0038
1E0038
01FFC0
01FFC0
01FFC0
01FFC0
ENDCHAR
STARTCHAR 0044
ENCODING 68
SWIDTH 500 0
DWIDTH 29 0
BBX 21 33 4 0
BITMAP
FFFF00
FFFF00
FFFF00
FFFF00
7803C0
7803C0
7803C0
7803C0
7800F0
7800F0
7800F0
780038
780038
780038
780038
780038
780038
780038
780038
780038
780038
780038
7800F0
7800F0
7800F0
7800F0
7803C0
7803C0
7803C0
FFFF00
FFFF00
FFFF00
FFFF00
ENDCHAR
STARTCHAR 0045
ENCODING 69
SWIDTH 500 0
DWIDTH 29 0
BBX 21 33 4 0
BITMAP
FFFFF8
FFFFF8
FFFFF8
FFFFF8
E00000
E00000
E00000
E00000
E00000
E00000
E00000
E00000
E00000
E00000
E00000
FFFC00
FFFC00
FFFC00
FFFC00
E00000
E00000
E00000
E00000
E00000
E00000
E00000
E00000
E00000
E00000
FFFFF8
FFFFF8
FFFFF8
FFFFF8
ENDCHAR
STARTCHAR 0046
ENCODING 70
SWIDTH 500 0
DWIDTH 29 0
BBX 21 33 4 0
BITMAP
FFFFF8
FFFFF8
FFFFF8
FFFFF8
E00000
E00000
E00000
E00000
E00000
E00000
E00000
E00000
E00000
E00000
E00000
FFFC00
FFFC00
FFFC00
FFFC00
E00000
E00000
E00000
E00000
E00000
E00000
E00000
E00000
E00000
E00000
E00000
E00000
E00000
E00000
ENDCHAR
STARTCHAR 0047
ENCODING 71
SWIDTH 500 0
DWIDTH 29 0
BBX 21 33 4 0
BITMAP
07FF00
07FF00
07FF00
07FF00
7800F0
7800F0
7800F0
7800F0
E00000
E00000
E00000
E00000
E00000
E00000
E00000
E00000
E00000
E00000
E03FF8
E03FF8
E03FF8
E03FF8
E000F0
E000F0
E000F0
E000F0
7800F0
7800F0
7800F0
07FFF0
07FFF0
07FFF0
07FFF0
ENDCHAR
STARTCHAR 0048
ENCODING 72
SWIDTH 500 0
DWIDTH 29 0
BBX 21 33 4 0
BITMAP
E00038
E00038
E00038
E00038
E00038
E00038
E00038
E00038
E00038
E00038
E00038
E00038
E00038
E00038
E00038
FFFFF8
FFFFF8
FFFFF8
FFFFF8
E00038
E00038
E00038
E00038
E00038
E00038
E00038
E00038
E00038
E00038
E00038
E00038
E00038
E00038
ENDCHAR
STARTCHAR 0049
ENCODING 73
SWIDTH 500 0
DWIDTH 29 0
BBX 15 33 7 0
BITMAP
FFFE
FFFE
FFFE
FFFE
0380
0380
0380
0380
0380
0380
0380
0380
0380
0380
0380
0380
0380
0380
0380
0380
0380
0380
0380
0380
0380
0380
0380
0380
0380
FFFE
FFFE
FFFE
FFFE
ENDCHAR
STARTCHAR 004A
ENCODING 74
SWIDTH 500 0
DWIDTH 29 0
BBX 21 33 4 0
BITMAP
01FFF8
01FFF8
01FFF8
01FFF8
000F00
000F00
000F00
000F00
000F00
000F00
000F00
000F00
000F00
000F00
000F00
000F00
000F00
000F00
000F00
000F00
000F00
000F00
000F00
000F00
000F00
000F00
E00F00
E00F00
E00F00
1FF000
1FF000
1FF000
1FF000
ENDCHAR
STARTCHAR 004B
ENCODING 75
SWIDTH 500 0
DWIDTH 29 0
BBX 21 33 4 0
BITMAP
E00038
E00038
E00038
E00038
E003C0
E003C0
E003C0
E003C0
E03C00
E03C00
E03C00
E1E000
E1E000
E1E000
E1E000
FF8000
FF8000
FF8000
FFE000
E1E000
E1E000
E1E000
E03C00
E03C00
E03C00
E03C00
E003C0
E003C0
E003C0
E00038
E00038
E00038
E00038
ENDCHAR
STARTCHAR 004C
ENCODING 76
SWIDTH 500 0
DWIDTH 29 0
BBX 22 33 2 0
BITMAP
E00000
E00000
E00000
E00000
E00000
E00000
E00000
E00000
E00000
E00000
E00000
E00000
E00000
E00000
E00000
E00000
E00000
E00000
E00000
E00000
E00000
E00000
E00000
E00000
E00000
E00000
E00000
E00000
E00000
FFFFFC
FFFFFC
FFFFFC
FFFFFC
ENDCHAR
STARTCHAR 004D
ENCODING 77
SWIDTH 500 0
DWIDTH 29 0
BBX 21 33 4 0
BITMAP
F800F8
F800F8
F800F8
F800F8
FE03F8
FE03F8
FE03F8
FE03F8
E78F38
E78F38
E78F38
E1FC38
E1FC38
E1FC38
E1FC38
E07038
E07038
E07038
E07038
E00038
E00038
E00038
E00038
E00038
E00038
E00038
E00038
E00038
E00038
E00038
E00038
E00038
E00038
ENDCHAR
STARTCHAR 004E
ENCODING 78
SWIDTH 500 0
DWIDTH 29 0
BBX 21 33 4 0
BITMAP
F80038
F80038
F80038
F80038
FE0038
FE0038
FE0038
FE0038
E78038
E78038
E78038
E1E038
E1E038
E1E038
E1E038
E07038
E07038
E07038
E07C38
E03C38
E03C38
E03C38
E00F38
E00F38
E00F38
E00F38
E003F8
E003F8
E003F8
E000F8
E000F8
E000F8
E000F8
ENDCHAR
STARTCHAR 004F
ENCODING 79
SWIDTH 500 0
DWIDTH 29 0
BBX 21 33 4 0
BITMAP
07FF00
07FF00
07FF00
07FF00
7800F0
7800F0
7800F0
7800F0
E00038
E00038
E00038
E00038
E00038
E00038
E00038
E00038
E00038
E00038
E00038
E00038
E00038
E00038
E00038
E00038
E00038
E00038
7800F0
7800F0
7800F0
07FF00
07FF00
07FF00
07FF00
ENDCHAR
STARTCHAR 0050
ENCODING 80
SWIDTH 500 0
DWIDTH 29 0
BBX 21 33 4 0
BITMAP
FFFF00
FFFF00
FFFF00
FFFF00
E000F0
E000F0
E000F0
E000F0
E00038
E00038
E00038
E000F0
E000F0
E000F0
E000F0
FFFF00
FFFF00
FFFF00
FFFF00
E00000
E00000
E00000
E00000
E00000
E00000
E00000
E00000
E00000
E00000
E00000
E00000
E00000
E00000
ENDCHAR
STARTCHAR 0051
ENCODING 81
SWIDTH 500 0
DWIDTH 29 0
BBX 21 37 4 -4
BITMAP
07FF00
07FF00
07FF00
07FF00
7800F0
7800F0
7800F0
7800F0
E00038
E00038
E00038
E00038
E00038
E00038
E00038
E00038
E00038
E00038
E00038
E00038
E00038
E00038
E07038
E07038
E07038
E07038
783CF0
783CF0
783CF0
07FF00
07FF00
07FF00
07FF00
0003C0
0003C0
0003C0
0003C0
ENDCHAR
STARTCHAR 0052
ENCODING 82
SWIDTH 500 0
DWIDTH 29 0
BBX 21 33 4 0
BITMAP
FFFF00
FFFF00
FFFF00
FFFF00
E000F0
E000F0
E000F0
E000F0
E00038
E00038
E00038
E000F0
E000F0
E000F0
E000F0
FFFF00
FFFF00
FFFF00
FFFF00
E00F00
E00F00
E00F00
E003C0
E003C0
E003C0
E003C0
E000F0
E000F0
E000F0
E00038
E00038
E00038
E00038
ENDCHAR
STARTCHAR 0053
ENCODING 83
SWIDTH 500 0
DWIDTH 29 0
BBX 21 33 4 0
BITMAP
07FF00
07FF00
07FF00
07FF00
7800F0
7800F0
7800F0
7800F0
E00000
E00000
E00000
780000
780000
780000
780000
07FF00
07FF00
07FF00
07FFF0
0000F0
0000F0
0000F0
000038
000038
000038
000038
7800F0
7800F0
7800F0
07FF00
07FF00
07FF00
07FF00
ENDCHAR
STARTCHAR 0054
ENCODING 84
SWIDTH 500 0
DWIDTH 29 0
BBX 21 33 4 0
BITMAP
FFFFF8
FFFFF8
FFFFF8
FFFFF8
007000
007000
007000
007000
007000
007000
007000
007000
007000
007000
007000
007000
007000
007000
007000
007000
007000
007000
007000
007000
007000
007000
007000
007000
007000
007000
007000
007000
007000
ENDCHAR
STARTCHAR 0055
ENCODING 85
SWIDTH 500 0
DWIDTH 29 0
BBX 21 33 4 0
BITMAP
E00038
E00038
E00038
E00038
E00038
E00038
E00038
E00038
E00038
E00038
E00038
E00038
E00038
E00038
E00038
E00038
E00038
E00038
E00038
E00038
E00038
E00038
E00038
E00038
E00038
E00038
7800F0
7800F0
7800F0
07FF00
07FF00
07FF00
07FF00
ENDCHAR
STARTCHAR 0056
ENCODING 86
SWIDTH 500 0
DWIDTH 29 0
BBX 21 33 4 0
BITMAP
E00038
E00038
E00038
E00038
E00038
E00038
E00038
E00038
E00038
E00038
E00038
E00038
E00038
E00038
E00038
7800F0
7800F0
7800F0
7E03F0
1E03C0
1E03C0
1E03C0
078F00
078F00
078F00
078F00
01FC00
01FC00
01FC00
007000
007000
007000
007000
ENDCHAR
STARTCHAR 0057
ENCODING 87
SWIDTH 500 0
DWIDTH 29 0
BBX 21 33 4 0
BITMAP
E00038
E00038
E00038
E00038
E00038
E00038
E00038
E00038
E00038
E00038
E00038
E00038
E00038
E00038
E00038
E07038
E07038
E07038
E1FC38
E1FC38
E1FC38
E1FC38
E78F38
E78F38
E78F38
E78F38
F800F8
F800F8
F800F8
E00038
E00038
E00038
E00038
ENDCHAR
STARTCHAR 0058
ENCODING 88
SWIDTH 500 0
DWIDTH 29 0
BBX 21 33 4 0
BITMAP
E00038
E00038
E00038
E00038
E00038
E00038
E00038
E00038
7800F0
7800F0
7800F0
078F00
078F00
078F00
078F00
007000
007000
007000
07FF00
078F00
078F00
078F00
7800F0
7800F0
7800F0
7800F0
E00038
E00038
E00038
E00038
E00038
E00038
E00038
ENDCHAR
STARTCHAR 0059
ENCODING 89
SWIDTH 500 0
DWIDTH 29 0
BBX 21 33 4 0
BITMAP
E00038
E00038
E00038
E00038
E00038
E00038
E00038
E00038
7800F0
7800F0
7800F0
078F00
078F00
078F00
078F00
007000
007000
007000
007000
007000
007000
007000
007000
007000
007000
007000
007000
007000
007000
007000
007000
007000
007000
ENDCHAR
STARTCHAR 005A
ENCODING 90
SWIDTH 500 0
DWIDTH 29 0
BBX 21 33 4 0
BITMAP
FFFFF8
FFFFF8
FFFFF8
FFFFF8
000038
000038
000038
000038
0000F0
0000F0
0000F0
000F00
000F00
000F00
000F00
007000
007000
007000
01F000
01E000
01E000
01E000
1E0000
1E0000
1E0000
1E0000
E00000
E00000
E00000
FFFFF8
FFFFF8
FFFFF8
FFFFF8
ENDCHAR
STARTCHAR 005B
ENCODING 91
SWIDTH 500 0
DWIDTH 29 0
BBX 15 33 7 0
BITMAP
FFFE
FFFE
FFFE
FFFE
F000
F000
F000
F000
F000
F000
F000
F000
F000
F000
F000
F000
F000
F000
F000
F000
F000
F000
F000
F000
F000
F000
F000
F000
F000
FFFE
FFFE
FFFE
FFFE
ENDCHAR
STARTCHAR 005C
ENCODING 92
SWIDTH 500 0
DWIDTH 29 0
BBX 19 33 5 0
BITMAP
F00000
F00000
F00000
F00000
3C0000
3C0000
3C0000
3C0000
0F0000
0F0000
0F0000
03C000
03C000
03C000
03C000
00E000
00E000
00E000
00F800
007800
007800
007800
001E00
001E00
001E00
001E00
000780
000780
000780
0001E0
0001E0
0001E0
0001E0
ENDCHAR
STARTCHAR 005D
ENCODING 93
SWIDTH 500 0
DWIDTH 29 0
BBX 15 33 7 0
BITMAP
FFFE
FFFE
FFFE
FFFE
001E
001E
001E
001E
001E
001E
001E
001E
001E
001E
001E
001E
001E
001E
001E
001E
001E
001E
001E
001E
001E
001E
001E
001E
001E
FFFE
FFFE
FFFE
FFFE
ENDCHAR
STARTCHAR 005E
ENCODING 94
SWIDTH 500 0
DWIDTH 29 0
BBX 19 11 5 22
BITMAP
00E000
00E000
00E000
00E000
0F1E00
0F1E00
0F1E00
0F1E00
F001E0
F001E0
F001E0
ENDCHAR
STARTCHAR 005F
ENCODING 95
SWIDTH 500 0
DWIDTH 29 0
BBX 21 4 4 -4
BITMAP
FFFFF8
FFFFF8
FFFFF8
FFFFF8
ENDCHAR
STARTCHAR 0060
ENCODING 96
SWIDTH 500 0
DWIDTH 29 0
BBX 7 15 11 18
BITMAP
F8
F8
F8
F8
F8
F8
F8
F8
38
38
38
1E
1E
1E
1E
ENDCHAR
STARTCHAR 0061
ENCODING 97
SWIDTH 500 0
DWIDTH 29 0
BBX 21 22 4 0
BITMAP
7FFFC0
7FFFC0
7FFFC0
7FFFC0
0000F0
0000F0
0000F0
1FFFF0
1FFFF0
1FFFF0
1FFFF0
E000F0
E000F0
E000F0
E000F0
E000F0
E000F0
E000F0
1FFF38
1FFF38
1FFF38
1FFF38
ENDCHAR
STARTCHAR 0062
ENCODING 98
SWIDTH 500 0
DWIDTH 29 0
BBX 21 33 4 0
BITMAP
E00000
E00000
E00000
E00000
E00000
E00000
E00000
E00000
E00000
E00000
E00000
E7FF00
E7FF00
E7FF00
E7FF00
F800F0
F800F0
F800F0
F800F8
E00038
E00038
E00038
E00038
E00038
E00038
E00038
F800F0
F800F0
F800F0
E7FF00
E7FF00
E7FF00
E7FF00
ENDCHAR
STARTCHAR 0063
ENCODING 99
SWIDTH 500 0
DWIDTH 29 0
BBX 21 22 4 0
BITMAP
07FFC0
07FFC0
07FFC0
07FFC0
780038
780038
780038
F80038
E00000
E00000
E00000
E00000
E00000
E00000
E00000
780038
780038
780038
07FFC0
07FFC0
07FFC0
07FFC0
ENDCHAR
STARTCHAR 0064
ENCODING 100
SWIDTH 500 0
DWIDTH 29 0
BBX 21 33 4 0
BITMAP
000038
000038
000038
000038
000038
000038
000038
000038
000038
000038
000038
07FF38
07FF38
07FF38
07FF38
7800F8
7800F8
7800F8
F800F8
E00038
E00038
E00038
E00038
E00038
E00038
E00038
7800F8
7800F8
7800F8
07FF38
07FF38
07FF38
07FF38
ENDCHAR
STARTCHAR 0065
ENCODING 101
SWIDTH 500 0
DWIDTH 29 0
BBX 21 22 4 0
BITMAP
1FFFC0
1FFFC0
1FFFC0
1FFFC0
E00038
E00038
E00038
FFFFF8
FFFFF8
FFFFF8
FFFFF8
E00000
E00000
E00000
E00000
E00000
E00000
E00000
1FFFF0
1FFFF0
1FFFF0
1FFFF0
ENDCHAR
STARTCHAR 0066
ENCODING 102
SWIDTH 500 0
DWIDTH 29 0
BBX 20 33 5 0
BITMAP
007FF0
007FF0
007FF0
007FF0
00E000
00E000
00E000
00E000
00E000
00E000
00E000
FFFFE0
FFFFE0
FFFFE0
FFFFE0
00E000
00E000
00E000
00E000
00E000
00E000
00E000
00E000
00E000
00E000
00E000
00E000
00E000
00E000
00E000
00E000
00E000
00E000
ENDCHAR
STARTCHAR 0067
ENCODING 103
SWIDTH 500 0
DWIDTH 29 0
BBX 21 33 4 -11
BITMAP
07FF38
07FF38
07FF38
07FF38
7800F8
7800F8
7800F8
F800F8
E00038
E00038
E00038
E00038
E00038
E00038
E00038
7800F8
7800F8
7800F8
07FF38
07FF38
07FF38
07FF38
000038
000038
000038
000038
7800F0
7800F0
7800F0
07FF00
07FF00
07FF00
07FF00
ENDCHAR
STARTCHAR 0068
ENCODING 104
SWIDTH 500 0
DWIDTH 29 0
BBX 21 33 4 0
BITMAP
E00000
E00000
E00000
E00000
E00000
E00000
E00000
E00000
E00000
E00000
E00000
E7FFC0
E7FFC0
E7FFC0
E7FFC0
F80038
F80038
F80038
F80038
E00038
E00038
E00038
E00038
E00038
E00038
E00038
E00038
E00038
E00038
E00038
E00038
E00038
E00038
ENDCHAR
STARTCHAR 0069
ENCODING 105
SWIDTH 500 0
DWIDTH 29 0
BBX 11 29 9 0
BITMAP
3E00
3E00
3E00
3E00
0000
0000
0000
FE00
FE00
FE00
FE00
0E00
0E00
0E00
0E00
0E00
0E00
0E00
0E00
0E00
0E00
0E00
0E00
0E00
0E00
FFE0
FFE0
FFE0
FFE0
ENDCHAR
STARTCHAR 006A
ENCODING 106
SWIDTH 500 0
DWIDTH 29 0
BBX 18 40 0 -11
BITMAP
0007C0
0007C0
0007C0
0007C0
000000
000000
000000
007FC0
007FC0
007FC0
007FC0
0003C0
0003C0
0003C0
0003C0
0003C0
0003C0
0003C0
0003C0
0003C0
0003C0
0003C0
0003C0
0003C0
0003C0
0003C0
0003C0
0003C0
0003C0
0003C0
0003C0
0003C0
0003C0
F00700
F00700
F00700
0FF800
0FF800
0FF800
0FF800
ENDCHAR
STARTCHAR 006B
ENCODING 107
SWIDTH 500 0
DWIDTH 29 0
BBX 20 33 4 0
BITMAP
E00000
E00000
E00000
E00000
E00000
E00000
E00000
E00000
E00000
E00000
E00000
E003C0
E003C0
E003C0
E003C0
E03C00
E03C00
E03C00
FFFC00
FFE000
FFE000
FFE000
E07000
E07000
E07000
E07000
E00F00
E00F00
E00F00
E000F0
E000F0
E000F0
E000F0
ENDCHAR
STARTCHAR 006C
ENCODING 108
SWIDTH 500 0
DWIDTH 29 0
BBX 9 33 7 0
BITMAP
FF80
FF80
FF80
FF80
0380
0380
0380
0380
0380
0380
0380
0380
0380
0380
0380
0380
0380
0380
0380
0380
0380
0380
0380
0380
0380
0380
0380
0380
0380
0380
0380
0380
0380
ENDCHAR
STARTCHAR 006D
ENCODING 109
SWIDTH 500 0
DWIDTH 29 0
BBX 23 22 2 0
BITMAP
E7E3FC
E7E3FC
E7E3FC
E7E3FC
381C0E
381C0E
381C0E
381C0E
381C0E
381C0E
381C0E
381C0E
381C0E
381C0E
381C0E
381C0E
381C0E
381C0E
381C0E
381C0E
381C0E
381C0E
ENDCHAR
STARTCHAR 006E
ENCODING 110
SWIDTH 500 0
DWIDTH 29 0
BBX 21 22 4 0
BITMAP
E7FFF0
E7FFF0
E7FFF0
E7FFF0
780038
780038
780038
780038
780038
780038
780038
780038
780038
780038
780038
780038
780038
780038
780038
780038
780038
780038
ENDCHAR
STARTCHAR 006F
ENCODING 111
SWIDTH 500 0
DWIDTH 29 0
BBX 21 22 4 0
BITMAP
07FF00
07FF00
07FF00
07FF00
7800F0
7800F0
7800F0
F800F8
E00038
E00038
E00038
E00038
E00038
E00038
E00038
7800F0
7800F0
7800F0
07FF00
07FF00
07FF00
07FF00
ENDCHAR
STARTCHAR 0070
ENCODING 112
SWIDTH 500 0
DWIDTH 29 0
BBX 21 33 4 -11
BITMAP
E7FF00
E7FF00
E7FF00
E7FF00
F800F0
F800F0
F800F0
F800F8
E00038
E00038
E00038
E00038
E00038
E00038
E00038
F800F0
F800F0
F800F0
E7FF00
E7FF00
E7FF00
E7FF00
E00000
E00000
E00000
E00000
E00000
E00000
E00000
E00000
E00000
E00000
E00000
ENDCHAR
STARTCHAR 0071
ENCODING 113
SWIDTH 500 0
DWIDTH 29 0
BBX 21 33 4 -11
BITMAP
07FF38
07FF38
07FF38
07FF38
7800F8
7800F8
7800F8
F800F8
E00038
E00038
E00038
E00038
E00038
E00038
E00038
7800F8
7800F8
7800F8
07FF38
07FF38
07FF38
07FF38
000038
000038
000038
000038
000038
000038
000038
000038
000038
000038
000038
ENDCHAR
STARTCHAR 0072
ENCODING 114
SWIDTH 500 0
DWIDTH 29 0
BBX 21 22 4 0
BITMAP
E7FFC0
E7FFC0
E7FFC0
E7FFC0
F80038
F80038
F80038
F80038
E00000
E00000
E00000
E00000
E00000
E00000
E00000
E00000
E00000
E00000
E00000
E00000
E00000
E00000
ENDCHAR
STARTCHAR 0073
ENCODING 115
SWIDTH 500 0
DWIDTH 29 0
BBX 21 22 4 0
BITMAP
1FFFC0
1FFFC0
1FFFC0
1FFFC0
F80038
F80038
F80038
FFE038
7FE000
7FE000
7FE000
003FF0
003FF0
003FF0
003FF0
E000F8
E000F8
E000F8
1FFFF0
1FFFF0
1FFFF0
1FFFF0
ENDCHAR
STARTCHAR 0074
ENCODING 116
SWIDTH 500 0
DWIDTH 29 0
BBX 19 33 5 0
BITMAP
00E000
00E000
00E000
00E000
00E000
00E000
00E000
00E000
00E000
00E000
00E000
FFFFE0
FFFFE0
FFFFE0
FFFFE0
00E000
00E000
00E000
00E000
00E000
00E000
00E000
00E000
00E000
00E000
00E000
00E000
00E000
00E000
007FE0
007FE0
007FE0
007FE0
ENDCHAR
STARTCHAR 0075
ENCODING 117
SWIDTH 500 0
DWIDTH 29 0
BBX 21 22 4 0
BITMAP
E00038
E00038
E00038
E00038
E00038
E00038
E00038
E00038
E00038
E00038
E00038
E00038
E00038
E00038
E00038
7803F8
7803F8
7803F8
1FFC38
1FFC38
1FFC38
1FFC38
ENDCHAR
STARTCHAR 0076
ENCODING 118
SWIDTH 500 0
DWIDTH 29 0
BBX 21 22 4 0
BITMAP
E00038
E00038
E00038
E00038
7800F0
7800F0
7800F0
7E03F0
1E03C0
1E03C0
1E03C0
078F00
078F00
078F00
078F00
01FC00
01FC00
01FC00
007000
007000
007000
007000
ENDCHAR
STARTCHAR 0077
ENCODING 119
SWIDTH 500 0
DWIDTH 29 0
BBX 21 22 4 0
BITMAP
E00038
E00038
E00038
E00038
E07038
E07038
E07038
E07038
E07038
E07038
E07038
E07038
E07038
E07038
E07038
7870F0
7870F0
7870F0
1F8FC0
1F8FC0
1F8FC0
1F8FC0
ENDCHAR
STARTCHAR 0078
ENCODING 120
SWIDTH 500 0
DWIDTH 29 0
BBX 21 22 4 0
BITMAP
E00038
E00038
E00038
E00038
1E03C0
1E03C0
1E03C0
1FFFC0
01FC00
01FC00
01FC00
01FC00
01FC00
01FC00
01FC00
1E03C0
1E03C0
1E03C0
E00038
E00038
E00038
E00038
ENDCHAR
STARTCHAR 0079
ENCODING 121
SWIDTH 500 0
DWIDTH 29 0
BBX 23 33 2 -11
BITMAP
38000E
38000E
38000E
38000E
1E003C
1E003C
1E003C
1F80FC
0780F0
0780F0
0780F0
01E3C0
01E3C0
01E3C0
01E3C0
007F00
007F00
007F00
001C00
001C00
001C00
001C00
007800
007800
007800
007800
01E000
01E000
01E000
FF8000
FF8000
FF8000
FF8000
ENDCHAR
STARTCHAR 007A
ENCODING 122
SWIDTH 500 0
DWIDTH 29 0
BBX 19 22 5 0
BITMAP
FFFFE0
FFFFE0
FFFFE0
FFFFE0
000780
000780
000780
007F80
007800
007800
007800
03C000
03C000
03C000
03C000
3C0000
3C0000
3C0000
FFFFE0
FFFFE0
FFFFE0
FFFFE0
ENDCHAR
STARTCHAR 007B
ENCODING 123
SWIDTH 500 0
DWIDTH 29 0
BBX 15 33 7 0
BITMAP
03FE
03FE
03FE
03FE
0F00
0F00
0F00
0F00
0F00
0F00
0F00
0F00
0F00
0F00
0F00
FC00
FC00
FC00
FF00
0F00
0F00
0F00
0F00
0F00
0F00
0F00
0F00
0F00
0F00
03FE
03FE
03FE
03FE
ENDCHAR
STARTCHAR 007C
ENCODING 124
SWIDTH 500 0
DWIDTH 29 0
BBX 3 33 13 0
BITMAP
E0
E0
E0
E0
E0
E0
E0
E0
E0
E0
E0
E0
E0
E0
E0
00
00
00
E0
E0
E0
E0
E0
E0
E0
E0
E0
E0
E0
E0
E0
E0
E0
ENDCHAR
STARTCHAR 007D
ENCODING 125
SWIDTH 500 0
DWIDTH 29 0
BBX 15 33 7 0
BITMAP
FF80
FF80
FF80
FF80
01E0
01E0
01E0
01E0
01E0
01E0
01E0
01E0
01E0
01E0
01E0
007E
007E
007E
01FE
01E0
01E0
01E0
01E0
01E0
01E0
01E0
01E0
01E0
01E0
FF80
FF80
FF80
FF80
ENDCHAR
STARTCHAR 007E
ENCODING 126
SWIDTH 500 0
DWIDTH 29 0
BBX 21 11 4 25
BITMAP
1F8000
1F8000
1F8000
E07038
E07038
E07038
E07038
000FC0
000FC0
000FC0
000FC0
ENDCHAR
STARTCHAR 007F
ENCODING 127
SWIDTH 500 0
DWIDTH 29 0
BBX 21 25 4 4
BITMAP
007000
007000
007000
007000
01FC00
01FC00
01FC00
078F00
078F00
078F00
078F00
1E03C0
1E03C0
1E03C0
7E03F0
7800F0
7800F0
7800F0
E00038
E00038
E00038
E00038
FFFFF8
FFFFF8
FFFFF8
ENDCHAR
STARTCHAR 00A0
ENCODING 160
SWIDTH 500 0
DWIDTH 29 0
BBX 0 0 0 0
BITMAP
ENDCHAR
STARTCHAR 00A1
ENCODING 161
SWIDTH 500 0
DWIDTH 29 0
BBX 11 33 9 0
BITMAP
0E00
0E00
0E00
0E00
0E00
0E00
0E00
0E00
0000
0000
0000
0E00
0E00
0E00
0E00
0E00
0E00
0E00
3F80
3F80
3F80
3F80
FFE0
FFE0
FFE0
FFE0
3F80
3F80
3F80
0E00
0E00
0E00
0E00
ENDCHAR
STARTCHAR 00A2
ENCODING 162
SWIDTH 500 0
DWIDTH 29 0
BBX 21 37 4 -4
BITMAP
007000
007000
007000
007000
007000
007000
007000
007000
07FFC0
07FFC0
07FFC0
780038
780038
780038
780038
E00000
E00000
E00000
E00000
E00000
E00000
E00000
780038
780038
780038
780038
07FFC0
07FFC0
07FFC0
007000
007000
007000
007000
007000
007000
007000
007000
ENDCHAR
STARTCHAR 00A3
ENCODING 163
SWIDTH 500 0
DWIDTH 29 0
BBX 21 33 4 0
BITMAP
007F00
007F00
007F00
007F00
0780F0
0780F0
0780F0
0780F0
078000
078000
078000
7FF000
7FF000
7FF000
7FF000
078000
078000
078000
078000
078000
078000
078000
078000
078000
078000
078000
7F8038
7F8038
7F8038
FFFFF0
FFFFF0
FFFFF0
FFFFF0
ENDCHAR
STARTCHAR 00A5
ENCODING 165
SWIDTH 500 0
DWIDTH 29 0
BBX 19 29 5 0
BITMAP
F001E0
F001E0
F001E0
F001E0
0F1E00
0F1E00
0F1E00
00E000
00E000
00E000
00E000
FFFFE0
FFFFE0
FFFFE0
FFFFE0
00E000
00E000
00E000
FFFFE0
FFFFE0
FFFFE0
FFFFE0
00E000
00E000
00E000
00E000
00E000
00E000
00E000
ENDCHAR
STARTCHAR 00A7
ENCODING 167
SWIDTH 500 0
DWIDTH 29 0
BBX 21 33 4 0
BITMAP
07FF00
07FF00
07FF00
07FF00
1E0000
1E0000
1E0000
1E0000
1FFF00
1FFF00
1FFF00
7800F0
7800F0
7800F0
7800F0
E00038
E00038
E00038
F800F8
7800F0
7800F0
7800F0
07FFC0
07FFC0
07FFC0
07FFC0
0003C0
0003C0
0003C0
07FF00
07FF00
07FF00
07FF00
ENDCHAR
STARTCHAR 00AA
ENCODING 170
SWIDTH 500 0
DWIDTH 29 0
BBX 15 22 7 11
BITMAP
0FF8
0FF8
0FF8
0FF8
F078
F078
F078
F078
F078
F078
F078
0FFE
0FFE
0FFE
0FFE
0000
0000
0000
FFFE
FFFE
FFFE
FFFE
ENDCHAR
STARTCHAR 00AB
ENCODING 171
SWIDTH 500 0
DWIDTH 29 0
BBX 21 18 4 7
BITMAP
01E038
01E038
01E038
1E03C0
1E03C0
1E03C0
1E03C0
E03C00
E03C00
E03C00
FE3FC0
1E03C0
1E03C0
1E03C0
01E038
01E038
01E038
01E038
ENDCHAR
STARTCHAR 00AC
ENCODING 172
SWIDTH 500 0
DWIDTH 29 0
BBX 21 14 4 4
BITMAP
FFFFF8
FFFFF8
FFFFF8
FFFFF8
000038
000038
000038
000038
000038
000038
000038
000038
000038
000038
ENDCHAR
STARTCHAR 00B0
ENCODING 176
SWIDTH 500 0
DWIDTH 29 0
BBX 14 15 4 18
BITMAP
1FE0
1FE0
1FE0
1FE0
E03C
E03C
E03C
E03C
E03C
E03C
E03C
1FE0
1FE0
1FE0
1FE0
ENDCHAR
STARTCHAR 00B1
ENCODING 177
SWIDTH 500 0
DWIDTH 29 0
BBX 21 25 4 4
BITMAP
007000
007000
007000
007000
007000
007000
007000
FFFFF8
FFFFF8
FFFFF8
FFFFF8
007000
007000
007000
007000
007000
007000
007000
000000
000000
000000
000000
FFFFF8
FFFFF8
FFFFF8
ENDCHAR
STARTCHAR 00B2
ENCODING 178
SWIDTH 500 0
DWIDTH 29 0
BBX 14 19 4 14
BITMAP
1FE0
1FE0
1FE0
1FE0
E03C
E03C
E03C
E03C
01E0
01E0
01E0
1E00
1E00
1E00
1E00
FFFC
FFFC
FFFC
FFFC
ENDCHAR
STARTCHAR 00B5
ENCODING 181
SWIDTH 500 0
DWIDTH 29 0
BBX 21 29 4 -7
BITMAP
1E00F0
1E00F0
1E00F0
1E00F0
1E00F0
1E00F0
1E00F0
1E00F0
1E00F0
1E00F0
1E00F0
1F80F0
1F80F0
1F80F0
1F80F0
1E3F38
1E3F38
1E3F38
1E0000
1E0000
1E0000
1E0000
780000
780000
780000
780000
E00000
E00000
E00000
ENDCHAR
STARTCHAR 00B6
ENCODING 182
SWIDTH 500 0
DWIDTH 29 0
BBX 21 33 4 0
BITMAP
07FFF8
07FFF8
07FFF8
07FFF8
783C38
783C38
783C38
783C38
E03C38
E03C38
E03C38
783C38
783C38
783C38
783C38
07FC38
07FC38
07FC38
07FC38
003C38
003C38
003C38
003C38
003C38
003C38
003C38
003C38
003C38
003C38
003C38
003C38
003C38
003C38
ENDCHAR
STARTCHAR 00B7
ENCODING 183
SWIDTH 500 0
DWIDTH 29 0
BBX 7 4 11 7
BITMAP
FE
FE
FE
FE
ENDCHAR
STARTCHAR 00BA
ENCODING 186
SWIDTH 500 0
DWIDTH 29 0
BBX 15 22 7 11
BITMAP
0FE0
0FE0
0FE0
0FE0
F01E
F01E
F01E
F01E
F01E
F01E
F01E
0FE0
0FE0
0FE0
0FE0
0000
0000
0000
FFFE
FFFE
FFFE
FFFE
ENDCHAR
STARTCHAR 00BB
ENCODING 187
SWIDTH 500 0
DWIDTH 29 0
BBX 21 18 4 7
BITMAP
E03C00
E03C00
E03C00
1E03C0
1E03C0
1E03C0
1E03C0
01E038
01E038
01E038
1FE3F8
1E03C0
1E03C0
1E03C0
E03C00
E03C00
E03C00
E03C00
ENDCHAR
STARTCHAR 00BC
ENCODING 188
SWIDTH 500 0
DWIDTH 29 0
BBX 21 40 4 -7
BITMAP
7E0000
7E0000
7E0000
7E0000
1E0000
1E0000
1E0000
1E0000
1E0038
1E0038
1E0038
1E03C0
1E03C0
1E03C0
1E03C0
003C00
003C00
003C00
01FCF0
01E0F0
01E0F0
01E0F0
1E03F0
1E03F0
1E03F0
1E03F0
E03CF0
E03CF0
E03CF0
007FF8
007FF8
007FF8
007FF8
0000F0
0000F0
0000F0
0000F0
0000F0
0000F0
0000F0
ENDCHAR
STARTCHAR 00BD
ENCODING 189
SWIDTH 500 0
DWIDTH 29 0
BBX 21 40 4 -7
BITMAP
7E0000
7E0000
7E0000
7E0000
1E0000
1E0000
1E0000
1E0000
1E0038
1E0038
1E0038
1E03C0
1E03C0
1E03C0
1E03C0
003C00
003C00
003C00
01FC00
01E000
01E000
01E000
1E0FC0
1E0FC0
1E0FC0
1E0FC0
E07038
E07038
E07038
0000F0
0000F0
0000F0
0000F0
000F00
000F00
000F00
000F00
003FF8
003FF8
003FF8
ENDCHAR
STARTCHAR 00BF
ENCODING 191
SWIDTH 500 0
DWIDTH 29 0
BBX 21 33 4 0
BITMAP
007000
007000
007000
007000
000000
000000
000000
000000
007000
007000
007000
007000
007000
007000
007000
01E000
01E000
01E000
1FE000
1E0000
1E0000
1E0000
E00038
E00038
E00038
E00038
E00038
E00038
E00038
7FFFC0
7FFFC0
7FFFC0
7FFFC0
ENDCHAR
STARTCHAR 00C4
ENCODING 196
SWIDTH 500 0
DWIDTH 29 0
BBX 21 33 4 0
BITMAP
7E03F0
7E03F0
7E03F0
7E03F0
007000
007000
007000
007000
078F00
078F00
078F00
1E03C0
1E03C0
1E03C0
1E03C0
7800F0
7800F0
7800F0
F800F8
E00038
E00038
E00038
FFFFF8
FFFFF8
FFFFF8
FFFFF8
E00038
E00038
E00038
E00038
E00038
E00038
E00038
ENDCHAR
STARTCHAR 00C5
ENCODING 197
SWIDTH 500 0
DWIDTH 29 0
BBX 19 36 5 0
BITMAP
03F800
03F800
03F800
3C0780
3C0780
3C0780
3C0780
03F800
03F800
03F800
03F800
000000
000000
000000
00E000
00E000
00E000
00E000
0F1E00
0F1E00
0F1E00
FF1FE0
F001E0
F001E0
F001E0
FFFFE0
FFFFE0
FFFFE0
FFFFE0
F001E0
F001E0
F001E0
F001E0
F001E0
F001E0
F001E0
ENDCHAR
STARTCHAR 00C6
ENCODING 198
SWIDTH 500 0
DWIDTH 29 0
BBX 21 25 4 0
BITMAP
07FFF8
07FFF8
07FFF8
1E3C00
1E3C00
1E3C00
1E3C00
783FF8
783FF8
783FF8
FFFFF8
FFFC00
FFFC00
FFFC00
E03C00
E03C00
E03C00
E03C00
E03C00
E03C00
E03C00
E03FF8
E03FF8
E03FF8
E03FF8
ENDCHAR
STARTCHAR 00C7
ENCODING 199
SWIDTH 500 0
DWIDTH 29 0
BBX 21 44 4 -11
BITMAP
01FFC0
01FFC0
01FFC0
01FFC0
1E0038
1E0038
1E0038
1E0038
780000
780000
780000
E00000
E00000
E00000
E00000
E00000
E00000
E00000
E00000
E00000
E00000
E00000
780000
780000
780000
780000
1E0038
1E0038
1E0038
01FFC0
01FFC0
01FFC0
01FFC0
0003C0
0003C0
0003C0
0003C0
000038
000038
000038
007FC0
007FC0
007FC0
007FC0
ENDCHAR
STARTCHAR 00C9
ENCODING 201
SWIDTH 500 0
DWIDTH 29 0
BBX 17 36 5 0
BITMAP
001E00
001E00
001E00
00E000
00E000
00E000
00E000
0F0000
0F0000
0F0000
0F0000
000000
000000
000000
FFFF80
FFFF80
FFFF80
FFFF80
F00000
F00000
F00000
FFFF80
FFFF80
FFFF80
FFFF80
F00000
F00000
F00000
F00000
F00000
F00000
F00000
FFFF80
FFFF80
FFFF80
FFFF80
ENDCHAR
STARTCHAR 00D1
ENCODING 209
SWIDTH 500 0
DWIDTH 29 0
BBX 21 36 4 0
BITMAP
078000
078000
078000
7870F0
7870F0
7870F0
7870F0
000F00
000F00
000F00
000F00
000000
000000
000000
FE0038
FE0038
FE0038
FE0038
E1E038
E1E038
E1E038
E1F038
E07038
E07038
E07038
E03C38
E03C38
E03C38
E03C38
E003F8
E003F8
E003F8
E000F8
E000F8
E000F8
E000F8
ENDCHAR
STARTCHAR 00D6
ENCODING 214
SWIDTH 500 0
DWIDTH 29 0
BBX 21 33 4 0
BITMAP
7E03F0
7E03F0
7E03F0
7E03F0
000000
000000
000000
000000
07FF00
07FF00
07FF00
7800F0
7800F0
7800F0
7800F0
E00038
E00038
E00038
E00038
E00038
E00038
E00038
E00038
E00038
E00038
E00038
7800F0
7800F0
7800F0
07FF00
07FF00
07FF00
07FF00
ENDCHAR
STARTCHAR 00DC
ENCODING 220
SWIDTH 500 0
DWIDTH 29 0
BBX 21 33 4 0
BITMAP
7E03F0
7E03F0
7E03F0
7E03F0
000000
000000
000000
000000
E00038
E00038
E00038
E00038
E00038
E00038
E00038
E00038
E00038
E00038
E00038
E00038
E00038
E00038
E00038
E00038
E00038
E00038
7800F0
7800F0
7800F0
07FF00
07FF00
07FF00
07FF00
ENDCHAR
STARTCHAR 00DF
ENCODING 223
SWIDTH 500 0
DWIDTH 29 0
BBX 21 29 4 -7
BITMAP
7FFFF0
7FFFF0
7FFFF0
7FFFF0
E00038
E00038
E00038
FFFFF8
FFFFF0
FFFFF0
FFFFF0
E00038
E00038
E00038
E00038
E00038
E00038
E00038
FFFFF0
FFFFF0
FFFFF0
FFFFF0
E00000
E00000
E00000
E00000
E00000
E00000
E00000
ENDCHAR
STARTCHAR 00E0
ENCODING 224
SWIDTH 500 0
DWIDTH 29 0
BBX 21 36 4 0
BITMAP
01E000
01E000
01E000
003C00
003C00
003C00
003C00
0003C0
0003C0
0003C0
0003C0
000000
000000
000000
7FFFC0
7FFFC0
7FFFC0
7FFFC0
0000F0
0000F0
0000F0
1FFFF0
1FFFF0
1FFFF0
1FFFF0
E000F0
E000F0
E000F0
E000F0
E000F0
E000F0
E000F0
1FFF38
1FFF38
1FFF38
1FFF38
ENDCHAR
STARTCHAR 00E1
ENCODING 225
SWIDTH 500 0
DWIDTH 29 0
BBX 21 36 4 0
BITMAP
000F00
000F00
000F00
007000
007000
007000
007000
078000
078000
078000
078000
000000
000000
000000
7FFFC0
7FFFC0
7FFFC0
7FFFC0
0000F0
0000F0
0000F0
1FFFF0
1FFFF0
1FFFF0
1FFFF0
E000F0
E000F0
E000F0
E000F0
E000F0
E000F0
E000F0
1FFF38
1FFF38
1FFF38
1FFF38
ENDCHAR
STARTCHAR 00E2
ENCODING 226
SWIDTH 500 0
DWIDTH 29 0
BBX 21 36 4 0
BITMAP
007000
007000
007000
078F00
078F00
078F00
078F00
7800F0
7800F0
7800F0
7800F0
000000
000000
000000
7FFFC0
7FFFC0
7FFFC0
7FFFC0
0000F0
0000F0
0000F0
1FFFF0
1FFFF0
1FFFF0
1FFFF0
E000F0
E000F0
E000F0
E000F0
E000F0
E000F0
E000F0
1FFF38
1FFF38
1FFF38
1FFF38
ENDCHAR
STARTCHAR 00E4
ENCODING 228
SWIDTH 500 0
DWIDTH 29 0
BBX 21 29 4 0
BITMAP
7E03F0
7E03F0
7E03F0
7E03F0
000000
000000
000000
7FFFC0
7FFFC0
7FFFC0
7FFFC0
0000F0
0000F0
0000F0
1FFFF0
1FFFF0
1FFFF0
1FFFF0
E000F0
E000F0
E000F0
E000F0
E000F0
E000F0
E000F0
1FFF38
1FFF38
1FFF38
1FFF38
ENDCHAR
STARTCHAR 00E5
ENCODING 229
SWIDTH 500 0
DWIDTH 29 0
BBX 21 36 4 0
BITMAP
01FC00
01FC00
01FC00
1E03C0
1E03C0
1E03C0
1E03C0
01FC00
01FC00
01FC00
01FC00
000000
000000
000000
7FFFC0
7FFFC0
7FFFC0
7FFFC0
0000F0
0000F0
0000F0
1FFFF0
1FFFF0
1FFFF0
1FFFF0
E000F0
E000F0
E000F0
E000F0
E000F0
E000F0
E000F0
1FFF38
1FFF38
1FFF38
1FFF38
ENDCHAR
STARTCHAR 00E6
ENCODING 230
SWIDTH 500 0
DWIDTH 29 0
BBX 23 29 4 -4
BITMAP
F80FC0
F80FC0
F80FC0
1E7038
1E7038
1E7038
1E7038
07F038
07F038
07F038
07FFF8
01FFF0
01FFF0
01FFF0
1FFF00
1FFF00
1FFF00
1FFF00
E073C0
E073C0
E073C0
E070F0
E070F0
E070F0
E070F0
1F803E
1F803E
1F803E
1F803E
ENDCHAR
STARTCHAR 00E7
ENCODING 231
SWIDTH 500 0
DWIDTH 29 0
BBX 21 33 4 -11
BITMAP
07FFC0
07FFC0
07FFC0
07FFC0
780038
780038
780038
F80038
E00000
E00000
E00000
E00000
E00000
E00000
E00000
780038
780038
780038
07FFC0
07FFC0
07FFC0
07FFC0
000F00
000F00
000F00
000F00
0000F0
0000F0
0000F0
007F00
007F00
007F00
007F00
ENDCHAR
STARTCHAR 00E8
ENCODING 232
SWIDTH 500 0
DWIDTH 29 0
BBX 21 36 4 0
BITMAP
01E000
01E000
01E000
003C00
003C00
003C00
003C00
0003C0
0003C0
0003C0
0003C0
000000
000000
000000
1FFFC0
1FFFC0
1FFFC0
1FFFC0
E00038
E00038
E00038
FFFFF8
FFFFF8
FFFFF8
FFFFF8
E00000
E00000
E00000
E00000
E00000
E00000
E00000
1FFFF0
1FFFF0
1FFFF0
1FFFF0
ENDCHAR
STARTCHAR 00E9
ENCODING 233
SWIDTH 500 0
DWIDTH 29 0
BBX 21 36 4 0
BITMAP
003C00
003C00
003C00
01E000
01E000
01E000
01E000
1E0000
1E0000
1E0000
1E0000
000000
000000
000000
1FFFC0
1FFFC0
1FFFC0
1FFFC0
E00038
E00038
E00038
FFFFF8
FFFFF8
FFFFF8
FFFFF8
E00000
E00000
E00000
E00000
E00000
E00000
E00000
1FFFF0
1FFFF0
1FFFF0
1FFFF0
ENDCHAR
STARTCHAR 00EA
ENCODING 234
SWIDTH 500 0
DWIDTH 29 0
BBX 21 36 4 0
BITMAP
007000
007000
007000
078F00
078F00
078F00
078F00
7800F0
7800F0
7800F0
7800F0
000000
000000
000000
1FFFC0
1FFFC0
1FFFC0
1FFFC0
E00038
E00038
E00038
FFFFF8
FFFFF8
FFFFF8
FFFFF8
E00000
E00000
E00000
E00000
E00000
E00000
E00000
1FFFF0
1FFFF0
1FFFF0
1FFFF0
ENDCHAR
STARTCHAR 00EB
ENCODING 235
SWIDTH 500 0
DWIDTH 29 0
BBX 21 29 4 0
BITMAP
7E03F0
7E03F0
7E03F0
7E03F0
000000
000000
000000
1FFFC0
1FFFC0
1FFFC0
1FFFC0
E00038
E00038
E00038
FFFFF8
FFFFF8
FFFFF8
FFFFF8
E00000
E00000
E00000
E00000
E00000
E00000
E00000
1FFFF0
1FFFF0
1FFFF0
1FFFF0
ENDCHAR
STARTCHAR 00EC
ENCODING 236
SWIDTH 500 0
DWIDTH 29 0
BBX 13 36 7 0
BITMAP
F000
F000
F000
0F00
0F00
0F00
0F00
01E0
01E0
01E0
01E0
0000
0000
0000
3F80
3F80
3F80
3F80
0380
0380
0380
0380
0380
0380
0380
0380
0380
0380
0380
0380
0380
0380
3FF8
3FF8
3FF8
3FF8
ENDCHAR
STARTCHAR 00ED
ENCODING 237
SWIDTH 500 0
DWIDTH 29 0
BBX 13 36 7 0
BITMAP
01E0
01E0
01E0
0F00
0F00
0F00
0F00
F000
F000
F000
F000
0000
0000
0000
3F80
3F80
3F80
3F80
0380
0380
0380
0380
0380
0380
0380
0380
0380
0380
0380
0380
0380
0380
3FF8
3FF8
3FF8
3FF8
ENDCHAR
STARTCHAR 00EE
ENCODING 238
SWIDTH 500 0
DWIDTH 29 0
BBX 19 36 5 0
BITMAP
00E000
00E000
00E000
0F1E00
0F1E00
0F1E00
0F1E00
F001E0
F001E0
F001E0
F001E0
000000
000000
000000
0FE000
0FE000
0FE000
0FE000
00E000
00E000
00E000
00E000
00E000
00E000
00E000
00E000
00E000
00E000
00E000
00E000
00E000
00E000
0FFE00
0FFE00
0FFE00
0FFE00
ENDCHAR
STARTCHAR 00EF
ENCODING 239
SWIDTH 500 0
DWIDTH 29 0
BBX 19 29 5 0
BITMAP
FC07E0
FC07E0
FC07E0
FC07E0
000000
000000
000000
0FE000
0FE000
0FE000
0FE000
00E000
00E000
00E000
00E000
00E000
00E000
00E000
00E000
00E000
00E000
00E000
00E000
00E000
00E000
0FFE00
0FFE00
0FFE00
0FFE00
ENDCHAR
STARTCHAR 00F1
ENCODING 241
SWIDTH 500 0
DWIDTH 29 0
BBX 21 36 4 0
BITMAP
078000
078000
078000
7870F0
7870F0
7870F0
7870F0
000F00
000F00
000F00
000F00
000000
000000
000000
E7FFF0
E7FFF0
E7FFF0
E7FFF0
780038
780038
780038
780038
780038
780038
780038
780038
780038
780038
780038
780038
780038
780038
780038
780038
780038
780038
ENDCHAR
STARTCHAR 00F2
ENCODING 242
SWIDTH 500 0
DWIDTH 29 0
BBX 21 36 4 0
BITMAP
078000
078000
078000
007000
007000
007000
007000
000F00
000F00
000F00
000F00
000000
000000
000000
07FF00
07FF00
07FF00
07FF00
7800F0
7800F0
7800F0
F800F8
E00038
E00038
E00038
E00038
E00038
E00038
E00038
7800F0
7800F0
7800F0
07FF00
07FF00
07FF00
07FF00
ENDCHAR
STARTCHAR 00F3
ENCODING 243
SWIDTH 500 0
DWIDTH 29 0
BBX 21 36 4 0
BITMAP
000F00
000F00
000F00
007000
007000
007000
007000
078000
078000
078000
078000
000000
000000
000000
07FF00
07FF00
07FF00
07FF00
7800F0
7800F0
7800F0
F800F8
E00038
E00038
E00038
E00038
E00038
E00038
E00038
7800F0
7800F0
7800F0
07FF00
07FF00
07FF00
07FF00
ENDCHAR
STARTCHAR 00F4
ENCODING 244
SWIDTH 500 0
DWIDTH 29 0
BBX 21 36 4 0
BITMAP
007000
007000
007000
078F00
078F00
078F00
078F00
7800F0
7800F0
7800F0
7800F0
000000
000000
000000
07FF00
07FF00
07FF00
07FF00
7800F0
7800F0
7800F0
F800F8
E00038
E00038
E00038
E00038
E00038
E00038
E00038
7800F0
7800F0
7800F0
07FF00
07FF00
07FF00
07FF00
ENDCHAR
STARTCHAR 00F6
ENCODING 246
SWIDTH 500 0
DWIDTH 29 0
BBX 21 29 4 0
BITMAP
7800F0
7800F0
7800F0
7800F0
000000
000000
000000
07FF00
07FF00
07FF00
07FF00
7800F0
7800F0
7800F0
F800F8
E00038
E00038
E00038
E00038
E00038
E00038
E00038
7800F0
7800F0
7800F0
07FF00
07FF00
07FF00
07FF00
ENDCHAR
STARTCHAR 00F7
ENCODING 247
SWIDTH 500 0
DWIDTH 29 0
BBX 21 25 4 4
BITMAP
01FC00
01FC00
01FC00
01FC00
01FC00
01FC00
01FC00
000000
000000
000000
000000
FFFFF8
FFFFF8
FFFFF8
FFFFF8
000000
000000
000000
01FC00
01FC00
01FC00
01FC00
01FC00
01FC00
01FC00
ENDCHAR
STARTCHAR 00F9
ENCODING 249
SWIDTH 500 0
DWIDTH 29 0
BBX 21 36 4 0
BITMAP
078000
078000
078000
007000
007000
007000
007000
000F00
000F00
000F00
000F00
000000
000000
000000
E00038
E00038
E00038
E00038
E00038
E00038
E00038
E00038
E00038
E00038
E00038
E00038
E00038
E00038
E00038
7803F8
7803F8
7803F8
1FFC38
1FFC38
1FFC38
1FFC38
ENDCHAR
STARTCHAR 00FA
ENCODING 250
SWIDTH 500 0
DWIDTH 29 0
BBX 21 36 4 0
BITMAP
000F00
000F00
000F00
007000
007000
007000
007000
078000
078000
078000
078000
000000
000000
000000
E00038
E00038
E00038
E00038
E00038
E00038
E00038
E00038
E00038
E00038
E00038
E00038
E00038
E00038
E00038
7803F8
7803F8
7803F8
1FFC38
1FFC38
1FFC38
1FFC38
ENDCHAR
STARTCHAR 00FB
ENCODING 251
SWIDTH 500 0
DWIDTH 29 0
BBX 21 36 4 0
BITMAP
007000
007000
007000
078F00
078F00
078F00
078F00
7800F0
7800F0
7800F0
7800F0
000000
000000
000000
E00038
E00038
E00038
E00038
E00038
E00038
E00038
E00038
E00038
E00038
E00038
E00038
E00038
E00038
E00038
7803F8
7803F8
7803F8
1FFC38
1FFC38
1FFC38
1FFC38
ENDCHAR
STARTCHAR 00FC
ENCODING 252
SWIDTH 500 0
DWIDTH 29 0
BBX 21 29 4 0
BITMAP
7E03F0
7E03F0
7E03F0
7E03F0
000000
000000
000000
E00038
E00038
E00038
E00038
E00038
E00038
E00038
E00038
E00038
E00038
E00038
E00038
E00038
E00038
E00038
7803F8
7803F8
7803F8
1FFC38
1FFC38
1FFC38
1FFC38
ENDCHAR
STARTCHAR 00FF
ENCODING 255
SWIDTH 500 0
DWIDTH 29 0
BBX 23 40 2 -11
BITMAP
1F80FC
1F80FC
1F80FC
1F80FC
000000
000000
000000
38000E
38000E
38000E
38000E
1E003C
1E003C
1E003C
1F80FC
0780F0
0780F0
0780F0
01E3C0
01E3C0
01E3C0
01E3C0
007F00
007F00
007F00
001C00
001C00
001C00
001C00
007800
007800
007800
007800
01E000
01E000
01E000
FF8000
FF8000
FF8000
FF8000
ENDCHAR
STARTCHAR 0192
ENCODING 402
SWIDTH 500 0
DWIDTH 29 0
BBX 21 44 4 -11
BITMAP
0003C0
0003C0
0003C0
0003C0
003C38
003C38
003C38
003C38
007000
007000
007000
007000
007000
007000
007000
007000
007000
007000
1FFFC0
1FFFC0
1FFFC0
1FFFC0
007000
007000
007000
007000
007000
007000
007000
007000
007000
007000
007000
007000
007000
007000
007000
E1E000
E1E000
E1E000
1E0000
1E0000
1E0000
1E0000
ENDCHAR
STARTCHAR 0393
ENCODING 915
SWIDTH 500 0
DWIDTH 29 0
BBX 21 33 4 0
BITMAP
FFFFF8
FFFFF8
FFFFF8
FFFFF8
E00038
E00038
E00038
E00038
E00000
E00000
E00000
E00000
E00000
E00000
E00000
E00000
E00000
E00000
E00000
E00000
E00000
E00000
E00000
E00000
E00000
E00000
E00000
E00000
E00000
E00000
E00000
E00000
E00000
ENDCHAR
STARTCHAR 0398
ENCODING 920
SWIDTH 500 0
DWIDTH 29 0
BBX 21 33 4 0
BITMAP
01FC00
01FC00
01FC00
01FC00
1E03C0
1E03C0
1E03C0
1E03C0
7800F0
7800F0
7800F0
E00038
E00038
E00038
E00038
FFFFF8
FFFFF8
FFFFF8
FFFFF8
E00038
E00038
E00038
7800F0
7800F0
7800F0
7800F0
1E03C0
1E03C0
1E03C0
01FC00
01FC00
01FC00
01FC00
ENDCHAR
STARTCHAR 03A3
ENCODING 931
SWIDTH 500 0
DWIDTH 29 0
BBX 21 33 4 0
BITMAP
FFFFF8
FFFFF8
FFFFF8
FFFFF8
E00038
E00038
E00038
E00038
1E0000
1E0000
1E0000
01E000
01E000
01E000
01E000
003C00
003C00
003C00
01FC00
01E000
01E000
01E000
1E0000
1E0000
1E0000
1E0000
E00038
E00038
E00038
FFFFF8
FFFFF8
FFFFF8
FFFFF8
ENDCHAR
STARTCHAR 03A6
ENCODING 934
SWIDTH 500 0
DWIDTH 29 0
BBX 21 33 4 0
BITMAP
FFFFF8
FFFFF8
FFFFF8
FFFFF8
007000
007000
007000
007000
1FFFC0
1FFFC0
1FFFC0
7870F0
7870F0
7870F0
7870F0
E07038
E07038
E07038
F870F8
7870F0
7870F0
7870F0
1FFFC0
1FFFC0
1FFFC0
1FFFC0
007000
007000
007000
FFFFF8
FFFFF8
FFFFF8
FFFFF8
ENDCHAR
STARTCHAR 03A9
ENCODING 937
SWIDTH 500 0
DWIDTH 29 0
BBX 21 25 4 0
BITMAP
07FF00
07FF00
07FF00
7800F0
7800F0
7800F0
7800F0
E00038
E00038
E00038
E00038
E00038
E00038
E00038
7800F0
7800F0
7800F0
7800F0
1E03C0
1E03C0
1E03C0
FE03F8
FE03F8
FE03F8
FE03F8
ENDCHAR
STARTCHAR 03B1
ENCODING 945
SWIDTH 500 0
DWIDTH 29 0
BBX 21 22 4 0
BITMAP
1FFC38
1FFC38
1FFC38
1FFC38
780FF0
780FF0
780FF0
F80FF0
E003C0
E003C0
E003C0
E003C0
E003C0
E003C0
E003C0
780FF0
780FF0
780FF0
1FFC38
1FFC38
1FFC38
1FFC38
ENDCHAR
STARTCHAR 03B4
ENCODING 948
SWIDTH 500 0
DWIDTH 29 0
BBX 21 33 4 0
BITMAP
007F00
007F00
007F00
007F00
01E0F0
01E0F0
01E0F0
01E0F0
078000
078000
078000
007000
007000
007000
007000
000F00
000F00
000F00
1FFFC0
1FFFC0
1FFFC0
1FFFC0
E00038
E00038
E00038
E00038
E00038
E00038
E00038
1FFFC0
1FFFC0
1FFFC0
1FFFC0
ENDCHAR
STARTCHAR 03B5
ENCODING 949
SWIDTH 500 0
DWIDTH 29 0
BBX 13 25 7 4
BITMAP
03F8
03F8
03F8
03F8
3C00
3C00
3C00
F000
F000
F000
F000
FFF8
FFF8
FFF8
FFF8
F000
F000
F000
3C00
3C00
3C00
3C00
03F8
03F8
03F8
ENDCHAR
STARTCHAR 03C0
ENCODING 960
SWIDTH 500 0
DWIDTH 29 0
BBX 21 22 4 0
BITMAP
7FFFF8
7FFFF8
7FFFF8
7FFFF8
E1E3C0
E1E3C0
E1E3C0
E1E3C0
01E3C0
01E3C0
01E3C0
01E3C0
01E3C0
01E3C0
01E3C0
01E3C0
01E3C0
01E3C0
01E3C0
01E3C0
01E3C0
01E3C0
ENDCHAR
STARTCHAR 03C3
ENCODING 963
SWIDTH 500 0
DWIDTH 29 0
BBX 21 22 4 0
BITMAP
1FFFF8
1FFFF8
1FFFF8
1FFFF8
783C00
783C00
783C00
F83F00
E00F00
E00F00
E00F00
E00F00
E00F00
E00F00
E00F00
783C00
783C00
783C00
1FF000
1FF000
1FF000
1FF000
ENDCHAR
STARTCHAR 03C4
ENCODING 964
SWIDTH 500 0
DWIDTH 29 0
BBX 21 25 4 0
BITMAP
1FE3F8
1FE3F8
1FE3F8
E03C00
E03C00
E03C00
E03C00
003C00
003C00
003C00
003C00
003C00
003C00
003C00
003C00
003C00
003C00
003C00
003C00
003C00
003C00
000F00
000F00
000F00
000F00
ENDCHAR
STARTCHAR 03C6
ENCODING 966
SWIDTH 500 0
DWIDTH 29 0
BBX 21 33 4 0
BITMAP
000038
000038
000038
000038
0000F0
0000F0
0000F0
0000F0
1FFFC0
1FFFC0
1FFFC0
E03C38
E03C38
E03C38
E03C38
E07038
E07038
E07038
E1F038
E1E038
E1E038
E1E038
1FFFC0
1FFFC0
1FFFC0
1FFFC0
780000
780000
780000
E00000
E00000
E00000
E00000
ENDCHAR
STARTCHAR 2022
ENCODING 8226
SWIDTH 500 0
DWIDTH 29 0
BBX 15 11 7 7
BITMAP
3FF8
3FF8
3FF8
FFFE
FFFE
FFFE
FFFE
3FF8
3FF8
3FF8
3FF8
ENDCHAR
STARTCHAR 203C
ENCODING 8252
SWIDTH 500 0
DWIDTH 29 0
BBX 19 33 5 0
BITMAP
F001E0
F001E0
F001E0
F001E0
F001E0
F001E0
F001E0
F001E0
F001E0
F001E0
F001E0
F001E0
F001E0
F001E0
F001E0
F001E0
F001E0
F001E0
F001E0
F001E0
F001E0
F001E0
000000
000000
000000
000000
F001E0
F001E0
F001E0
F001E0
F001E0
F001E0
F001E0
ENDCHAR
STARTCHAR 207F
ENCODING 8319
SWIDTH 500 0
DWIDTH 29 0
BBX 18 19 4 14
BITMAP
E1FC00
E1FC00
E1FC00
E1FC00
1E03C0
1E03C0
1E03C0
1E03C0
1E03C0
1E03C0
1E03C0
1E03C0
1E03C0
1E03C0
1E03C0
1E03C0
1E03C0
1E03C0
1E03C0
ENDCHAR
STARTCHAR 20A7
ENCODING 8359
SWIDTH 500 0
DWIDTH 29 0
BBX 21 33 4 0
BITMAP
FFF000
FFF000
FFF000
FFF000
E00F00
E00F00
E00F00
E00F00
E00F00
E00F00
E00F00
FFF000
FFF000
FFF000
FFF000
E003C0
E003C0
E003C0
E03FF8
E03FF8
E03FF8
E03FF8
E003C0
E003C0
E003C0
E003C0
E003C0
E003C0
E003C0
E000F8
E000F8
E000F8
E000F8
ENDCHAR
STARTCHAR 2190
ENCODING 8592
SWIDTH 500 0
DWIDTH 29 0
BBX 21 18 4 7
BITMAP
01E000
01E000
01E000
1E0000
1E0000
1E0000
1E0000
FFFFF8
FFFFF8
FFFFF8
FFFFF8
1E0000
1E0000
1E0000
01E000
01E000
01E000
01E000
ENDCHAR
STARTCHAR 2191
ENCODING 8593
SWIDTH 500 0
DWIDTH 29 0
BBX 15 33 7 0
BITMAP
0380
0380
0380
0380
0FE0
0FE0
0FE0
0FE0
FFFE
FFFE
FFFE
0380
0380
0380
0380
0380
0380
0380
0380
0380
0380
0380
0380
0380
0380
0380
0380
0380
0380
0380
0380
0380
0380
ENDCHAR
STARTCHAR 2192
ENCODING 8594
SWIDTH 500 0
DWIDTH 29 0
BBX 21 18 4 7
BITMAP
003C00
003C00
003C00
0003C0
0003C0
0003C0
0003C0
FFFFF8
FFFFF8
FFFFF8
FFFFF8
0003C0
0003C0
0003C0
003C00
003C00
003C00
003C00
ENDCHAR
STARTCHAR 2193
ENCODING 8595
SWIDTH 500 0
DWIDTH 29 0
BBX 15 33 7 0
BITMAP
0380
0380
0380
0380
0380
0380
0380
0380
0380
0380
0380
0380
0380
0380
0380
0380
0380
0380
0380
0380
0380
0380
FFFE
FFFE
FFFE
FFFE
0FE0
0FE0
0FE0
0380
0380
0380
0380
ENDCHAR
STARTCHAR 2194
ENCODING 8596
SWIDTH 500 0
DWIDTH 29 0
BBX 25 18 2 7
BITMAP
01E3C000
01E3C000
01E3C000
1FE3FC00
1FE3FC00
1FE3FC00
1FE3FC00
FFFFFF80
FFFFFF80
FFFFFF80
FFFFFF80
1FE3FC00
1FE3FC00
1FE3FC00
01E3C000
01E3C000
01E3C000
01E3C000
ENDCHAR
STARTCHAR 2195
ENCODING 8597
SWIDTH 500 0
DWIDTH 29 0
BBX 15 33 7 0
BITMAP
0380
0380
0380
0380
0FE0
0FE0
0FE0
0FE0
FFFE
FFFE
FFFE
0380
0380
0380
0380
0380
0380
0380
0380
0380
0380
0380
FFFE
FFFE
FFFE
FFFE
0FE0
0FE0
0FE0
0380
0380
0380
0380
ENDCHAR
STARTCHAR 21A8
ENCODING 8616
SWIDTH 500 0
DWIDTH 29 0
BBX 15 37 7 -4
BITMAP
0380
0380
0380
0380
0FE0
0FE0
0FE0
0FE0
FFFE
FFFE
FFFE
0380
0380
0380
0380
0380
0380
0380
0380
0380
0380
0380
FFFE
FFFE
FFFE
FFFE
0FE0
0FE0
0FE0
0380
0380
0380
0380
FFFE
FFFE
FFFE
FFFE
ENDCHAR
STARTCHAR 2219
ENCODING 8729
SWIDTH 500 0
DWIDTH 29 0
BBX 7 8 11 7
BITMAP
FE
FE
FE
FE
FE
FE
FE
FE
ENDCHAR
STARTCHAR 221A
ENCODING 8730
SWIDTH 500 0
DWIDTH 29 0
BBX 21 33 4 0
BITMAP
003FF8
003FF8
003FF8
003FF8
003C00
003C00
003C00
003C00
003C00
003C00
003C00
003C00
003C00
003C00
003C00
003C00
003C00
003C00
E03C00
E03C00
E03C00
E03C00
1E3C00
1E3C00
1E3C00
1E3C00
01FC00
01FC00
01FC00
003C00
003C00
003C00
003C00
ENDCHAR
STARTCHAR 221E
ENCODING 8734
SWIDTH 500 0
DWIDTH 29 0
BBX 25 14 2 11
BITMAP
1FE3FC00
1FE3FC00
1FE3FC00
E01C0380
E01C0380
E01C0380
E01C0380
E01C0380
E01C0380
E01C0380
FFFFFF80
1FE3FC00
1FE3FC00
1FE3FC00
ENDCHAR
STARTCHAR 221F
ENCODING 8735
SWIDTH 500 0
DWIDTH 29 0
BBX 21 15 4 7
BITMAP
E00000
E00000
E00000
E00000
E00000
E00000
E00000
E00000
E00000
E00000
E00000
FFFFF8
FFFFF8
FFFFF8
FFFFF8
ENDCHAR
STARTCHAR 2229
ENCODING 8745
SWIDTH 500 0
DWIDTH 29 0
BBX 21 25 4 0
BITMAP
07FF00
07FF00
07FF00
7800F0
7800F0
7800F0
7800F0
E00038
E00038
E00038
E00038
E00038
E00038
E00038
E00038
E00038
E00038
E00038
E00038
E00038
E00038
E00038
E00038
E00038
E00038
ENDCHAR
STARTCHAR 2248
ENCODING 8776
SWIDTH 500 0
DWIDTH 29 0
BBX 21 25 4 4
BITMAP
1F8000
1F8000
1F8000
1F8000
E07038
E07038
E07038
000FC0
000FC0
000FC0
000FC0
000000
000000
000000
1F8000
1F8000
1F8000
1F8000
E07038
E07038
E07038
E07038
000FC0
000FC0
000FC0
ENDCHAR
STARTCHAR 2261
ENCODING 8801
SWIDTH 500 0
DWIDTH 29 0
BBX 21 25 4 4
BITMAP
FFFFF8
FFFFF8
FFFFF8
FFFFF8
000000
000000
000000
000000
000000
000000
000000
FFFFF8
FFFFF8
FFFFF8
FFFFF8
000000
000000
000000
000000
000000
000000
000000
FFFFF8
FFFFF8
FFFFF8
ENDCHAR
STARTCHAR 2264
ENCODING 8804
SWIDTH 500 0
DWIDTH 29 0
BBX 21 33 4 0
BITMAP
0000F8
0000F8
0000F8
0000F8
003F00
003F00
003F00
003F00
07E000
07E000
07E000
F80000
F80000
F80000
F80000
07E000
07E000
07E000
07FF00
003F00
003F00
003F00
0000F8
0000F8
0000F8
0000F8
000000
000000
000000
FFFFF8
FFFFF8
FFFFF8
FFFFF8
ENDCHAR
STARTCHAR 2265
ENCODING 8805
SWIDTH 500 0
DWIDTH 29 0
BBX 21 33 4 0
BITMAP
F80000
F80000
F80000
F80000
07E000
07E000
07E000
07E000
003F00
003F00
003F00
0000F8
0000F8
0000F8
0000F8
003F00
003F00
003F00
07FF00
07E000
07E000
07E000
F80000
F80000
F80000
F80000
000000
000000
000000
FFFFF8
FFFFF8
FFFFF8
FFFFF8
ENDCHAR
STARTCHAR 2302
ENCODING 8962
SWIDTH 500 0
DWIDTH 29 0
BBX 21 25 4 4
BITMAP
007000
007000
007000
007000
01FC00
01FC00
01FC00
078F00
078F00
078F00
078F00
1E03C0
1E03C0
1E03C0
7E03F0
7800F0
7800F0
7800F0
E00038
E00038
E00038
E00038
FFFFF8
FFFFF8
FFFFF8
ENDCHAR
STARTCHAR 2310
ENCODING 8976
SWIDTH 500 0
DWIDTH 29 0
BBX 21 14 4 4
BITMAP
FFFFF8
FFFFF8
FFFFF8
FFFFF8
E00000
E00000
E00000
E00000
E00000
E00000
E00000
E00000
E00000
E00000
ENDCHAR
STARTCHAR 2320
ENCODING 8992
SWIDTH 500 0
DWIDTH 29 0
BBX 12 40 13 -11
BITMAP
7FE0
7FE0
7FE0
7FE0
E070
E070
E070
E000
E000
E000
E000
E000
E000
E000
E000
E000
E000
E000
E000
E000
E000
E000
E000
E000
E000
E000
E000
E000
E000
E000
E000
E000
E000
E000
E000
E000
E000
E000
E000
E000
ENDCHAR
STARTCHAR 2321
ENCODING 8993
SWIDTH 500 0
DWIDTH 29 0
BBX 12 40 4 -4
BITMAP
0070
0070
0070
0070
0070
0070
0070
0070
0070
0070
0070
0070
0070
0070
0070
0070
0070
0070
0070
0070
0070
0070
0070
0070
0070
0070
0070
0070
0070
0070
0070
0070
E070
E070
E070
E070
7FE0
7FE0
7FE0
7FE0
ENDCHAR
STARTCHAR 2500
ENCODING 9472
SWIDTH 500 0
DWIDTH 29 0
BBX 29 4 0 7
BITMAP
FFFFFFF8
FFFFFFF8
FFFFFFF8
FFFFFFF8
ENDCHAR
STARTCHAR 2502
ENCODING 9474
SWIDTH 500 0
DWIDTH 29 0
BBX 3 47 13 -11
BITMAP
E0
E0
E0
E0
E0
E0
E0
E0
E0
E0
E0
E0
E0
E0
E0
E0
E0
E0
E0
E0
E0
E0
E0
E0
E0
E0
E0
E0
E0
E0
E0
E0
E0
E0
E0
E0
E0
E0
E0
E0
E0
E0
E0
E0
E0
E0
E0
ENDCHAR
STARTCHAR 250C
ENCODING 9484
SWIDTH 500 0
DWIDTH 29 0
BBX 16 22 13 -11
BITMAP
FFFF
FFFF
FFFF
FFFF
E000
E000
E000
E000
E000
E000
E000
E000
E000
E000
E000
E000
E000
E000
E000
E000
E000
E000
ENDCHAR
STARTCHAR 2510
ENCODING 9488
SWIDTH 500 0
DWIDTH 29 0
BBX 16 22 0 -11
BITMAP
FFFF
FFFF
FFFF
FFFF
0007
0007
0007
0007
0007
0007
0007
0007
0007
0007
0007
0007
0007
0007
0007
0007
0007
0007
ENDCHAR
STARTCHAR 2514
ENCODING 9492
SWIDTH 500 0
DWIDTH 29 0
BBX 16 29 13 7
BITMAP
E000
E000
E000
E000
E000
E000
E000
E000
E000
E000
E000
E000
E000
E000
E000
E000
E000
E000
E000
E000
E000
E000
E000
E000
E000
FFFF
FFFF
FFFF
FFFF
ENDCHAR
STARTCHAR 2518
ENCODING 9496
SWIDTH 500 0
DWIDTH 29 0
BBX 16 29 0 7
BITMAP
0007
0007
0007
0007
0007
0007
0007
0007
0007
0007
0007
0007
0007
0007
0007
0007
0007
0007
0007
0007
0007
0007
0007
0007
0007
FFFF
FFFF
FFFF
FFFF
ENDCHAR
STARTCHAR 251C
ENCODING 9500
SWIDTH 500 0
DWIDTH 29 0
BBX 16 47 13 -11
BITMAP
E000
E000
E000
E000
E000
E000
E000
E000
E000
E000
E000
E000
E000
E000
E000
E000
E000
E000
E000
E000
E000
E000
E000
E000
E000
FFFF
FFFF
FFFF
FFFF
E000
E000
E000
E000
E000
E000
E000
E000
E000
E000
E000
E000
E000
E000
E000
E000
E000
E000
ENDCHAR
STARTCHAR 2524
ENCODING 9508
SWIDTH 500 0
DWIDTH 29 0
BBX 16 47 0 -11
BITMAP
0007
0007
0007
0007
0007
0007
0007
0007
0007
0007
0007
0007
0007
0007
0007
0007
0007
0007
0007
0007
0007
0007
0007
0007
0007
FFFF
FFFF
FFFF
FFFF
0007
0007
0007
0007
0007
0007
0007
0007
0007
0007
0007
0007
0007
0007
0007
0007
0007
0007
ENDCHAR
STARTCHAR 252C
ENCODING 9516
SWIDTH 500 0
DWIDTH 29 0
BBX 29 22 0 -11
BITMAP
FFFFFFF8
FFFFFFF8
FFFFFFF8
FFFFFFF8
00070000
00070000
00070000
00070000
00070000
00070000
00070000
00070000
00070000
00070000
00070000
00070000
00070000
00070000
00070000
00070000
00070000
00070000
ENDCHAR
STARTCHAR 2534
ENCODING 9524
SWIDTH 500 0
DWIDTH 29 0
BBX 29 29 0 7
BITMAP
00070000
00070000
00070000
00070000
00070000
00070000
00070000
00070000
00070000
00070000
00070000
00070000
00070000
00070000
00070000
00070000
00070000
00070000
00070000
00070000
00070000
00070000
00070000
00070000
00070000
FFFFFFF8
FFFFFFF8
FFFFFFF8
FFFFFFF8
ENDCHAR
STARTCHAR 253C
ENCODING 9532
SWIDTH 500 0
DWIDTH 29 0
BBX 29 47 0 -11
BITMAP
00070000
00070000
00070000
00070000
00070000
00070000
00070000
00070000
00070000
00070000
00070000
00070000
00070000
00070000
00070000
00070000
00070000
00070000
00070000
00070000
00070000
00070000
00070000
00070000
00070000
FFFFFFF8
FFFFFFF8
FFFFFFF8
FFFFFFF8
00070000
00070000
00070000
00070000
00070000
00070000
00070000
00070000
00070000
00070000
00070000
00070000
00070000
00070000
00070000
00070000
00070000
00070000
ENDCHAR
STARTCHAR 2550
ENCODING 9552
SWIDTH 500 0
DWIDTH 29 0
BBX 29 11 0 7
BITMAP
FFFFFFF8
FFFFFFF8
FFFFFFF8
FFFFFFF8
00000000
00000000
00000000
FFFFFFF8
FFFFFFF8
FFFFFFF8
FFFFFFF8
ENDCHAR
STARTCHAR 2551
ENCODING 9553
SWIDTH 500 0
DWIDTH 29 0
BBX 11 47 9 -11
BITMAP
F1E0
F1E0
F1E0
F1E0
F1E0
F1E0
F1E0
F1E0
F1E0
F1E0
F1E0
F1E0
F1E0
F1E0
F1E0
F1E0
F1E0
F1E0
F1E0
F1E0
F1E0
F1E0
F1E0
F1E0
F1E0
F1E0
F1E0
F1E0
F1E0
F1E0
F1E0
F1E0
F1E0
F1E0
F1E0
F1E0
F1E0
F1E0
F1E0
F1E0
F1E0
F1E0
F1E0
F1E0
F1E0
F1E0
F1E0
ENDCHAR
STARTCHAR 2552
ENCODING 9554
SWIDTH 500 0
DWIDTH 29 0
BBX 16 29 13 -11
BITMAP
FFFF
FFFF
FFFF
FFFF
E000
E000
E000
FFFF
FFFF
FFFF
FFFF
E000
E000
E000
E000
E000
E000
E000
E000
E000
E000
E000
E000
E000
E000
E000
E000
E000
E000
ENDCHAR
STARTCHAR 2553
ENCODING 9555
SWIDTH 500 0
DWIDTH 29 0
BBX 20 22 9 -11
BITMAP
FFFFF0
FFFFF0
FFFFF0
FFFFF0
F1E000
F1E000
F1E000
F1E000
F1E000
F1E000
F1E000
F1E000
F1E000
F1E000
F1E000
F1E000
F1E000
F1E000
F1E000
F1E000
F1E000
F1E000
ENDCHAR
STARTCHAR 2554
ENCODING 9556
SWIDTH 500 0
DWIDTH 29 0
BBX 20 29 9 -11
BITMAP
FFFFF0
FFFFF0
FFFFF0
FFFFF0
F00000
F00000
F00000
F1FFF0
F1FFF0
F1FFF0
F1FFF0
F1E000
F1E000
F1E000
F1E000
F1E000
F1E000
F1E000
F1E000
F1E000
F1E000
F1E000
F1E000
F1E000
F1E000
F1E000
F1E000
F1E000
F1E000
ENDCHAR
STARTCHAR 2555
ENCODING 9557
SWIDTH 500 0
DWIDTH 29 0
BBX 16 29 0 -11
BITMAP
FFFF
FFFF
FFFF
FFFF
0007
0007
0007
FFFF
FFFF
FFFF
FFFF
0007
0007
0007
0007
0007
0007
0007
0007
0007
0007
0007
0007
0007
0007
0007
0007
0007
0007
ENDCHAR
STARTCHAR 2556
ENCODING 9558
SWIDTH 500 0
DWIDTH 29 0
BBX 20 22 0 -11
BITMAP
FFFFF0
FFFFF0
FFFFF0
FFFFF0
0078F0
0078F0
0078F0
0078F0
0078F0
0078F0
0078F0
0078F0
0078F0
0078F0
0078F0
0078F0
0078F0
0078F0
0078F0
0078F0
0078F0
0078F0
ENDCHAR
STARTCHAR 2557
ENCODING 9559
SWIDTH 500 0
DWIDTH 29 0
BBX 20 29 0 -11
BITMAP
FFFFF0
FFFFF0
FFFFF0
FFFFF0
0000F0
0000F0
0000F0
FFF8F0
FFF8F0
FFF8F0
FFF8F0
0078F0
0078F0
0078F0
0078F0
0078F0
0078F0
0078F0
0078F0
0078F0
0078F0
0078F0
0078F0
0078F0
0078F0
0078F0
0078F0
0078F0
0078F0
ENDCHAR
STARTCHAR 2558
ENCODING 9560
SWIDTH 500 0
DWIDTH 29 0
BBX 16 29 13 7
BITMAP
E000
E000
E000
E000
E000
E000
E000
E000
E000
E000
E000
E000
E000
E000
E000
E000
E000
E000
FFFF
FFFF
FFFF
FFFF
E000
E000
E000
FFFF
FFFF
FFFF
FFFF
ENDCHAR
STARTCHAR 2559
ENCODING 9561
SWIDTH 500 0
DWIDTH 29 0
BBX 20 29 9 7
BITMAP
F1E000
F1E000
F1E000
F1E000
F1E000
F1E000
F1E000
F1E000
F1E000
F1E000
F1E000
F1E000
F1E000
F1E000
F1E000
F1E000
F1E000
F1E000
F1E000
F1E000
F1E000
F1E000
F1E000
F1E000
F1E000
FFFFF0
FFFFF0
FFFFF0
FFFFF0
ENDCHAR
STARTCHAR 255A
ENCODING 9562
SWIDTH 500 0
DWIDTH 29 0
BBX 20 29 9 7
BITMAP
F1E000
F1E000
F1E000
F1E000
F1E000
F1E000
F1E000
F1E000
F1E000
F1E000
F1E000
F1E000
F1E000
F1E000
F1E000
F1E000
F1E000
F1E000
F1FFF0
F1FFF0
F1FFF0
F1FFF0
F00000
F00000
F00000
FFFFF0
FFFFF0
FFFFF0
FFFFF0
ENDCHAR
STARTCHAR 255B
ENCODING 9563
SWIDTH 500 0
DWIDTH 29 0
BBX 16 29 0 7
BITMAP
0007
0007
0007
0007
0007
0007
0007
0007
0007
0007
0007
0007
0007
0007
0007
0007
0007
0007
FFFF
FFFF
FFFF
FFFF
0007
0007
0007
FFFF
FFFF
FFFF
FFFF
ENDCHAR
STARTCHAR 255C
ENCODING 9564
SWIDTH 500 0
DWIDTH 29 0
BBX 20 29 0 7
BITMAP
0078F0
0078F0
0078F0
0078F0
0078F0
0078F0
0078F0
0078F0
0078F0
0078F0
0078F0
0078F0
0078F0
0078F0
0078F0
0078F0
0078F0
0078F0
0078F0
0078F0
0078F0
0078F0
0078F0
0078F0
0078F0
FFFFF0
FFFFF0
FFFFF0
FFFFF0
ENDCHAR
STARTCHAR 255D
ENCODING 9565
SWIDTH 500 0
DWIDTH 29 0
BBX 20 29 0 7
BITMAP
0078F0
0078F0
0078F0
0078F0
0078F0
0078F0
0078F0
0078F0
0078F0
0078F0
0078F0
0078F0
0078F0
0078F0
0078F0
0078F0
0078F0
0078F0
FFF8F0
FFF8F0
FFF8F0
FFF8F0
0000F0
0000F0
0000F0
FFFFF0
FFFFF0
FFFFF0
FFFFF0
ENDCHAR
STARTCHAR 255E
ENCODING 9566
SWIDTH 500 0
DWIDTH 29 0
BBX 16 47 13 -11
BITMAP
E000
E000
E000
E000
E000
E000
E000
E000
E000
E000
E000
E000
E000
E000
E000
E000
E000
E000
FFFF
FFFF
FFFF
FFFF
E000
E000
E000
FFFF
FFFF
FFFF
FFFF
E000
E000
E000
E000
E000
E000
E000
E000
E000
E000
E000
E000
E000
E000
E000
E000
E000
E000
ENDCHAR
STARTCHAR 255F
ENCODING 9567
SWIDTH 500 0
DWIDTH 29 0
BBX 20 47 9 -11
BITMAP
F1E000
F1E000
F1E000
F1E000
F1E000
F1E000
F1E000
F1E000
F1E000
F1E000
F1E000
F1E000
F1E000
F1E000
F1E000
F1E000
F1E000
F1E000
F1E000
F1E000
F1E000
F1E000
F1E000
F1E000
F1E000
F1FFF0
F1FFF0
F1FFF0
F1FFF0
F1E000
F1E000
F1E000
F1E000
F1E000
F1E000
F1E000
F1E000
F1E000
F1E000
F1E000
F1E000
F1E000
F1E000
F1E000
F1E000
F1E000
F1E000
ENDCHAR
STARTCHAR 2560
ENCODING 9568
SWIDTH 500 0
DWIDTH 29 0
BBX 20 47 9 -11
BITMAP
F1E000
F1E000
F1E000
F1E000
F1E000
F1E000
F1E000
F1E000
F1E000
F1E000
F1E000
F1E000
F1E000
F1E000
F1E000
F1E000
F1E000
F1E000
F1FFF0
F1FFF0
F1FFF0
F1FFF0
F00000
F00000
F00000
F1FFF0
F1FFF0
F1FFF0
F1FFF0
F1E000
F1E000
F1E000
F1E000
F1E000
F1E000
F1E000
F1E000
F1E000
F1E000
F1E000
F1E000
F1E000
F1E000
F1E000
F1E000
F1E000
F1E000
ENDCHAR
STARTCHAR 2561
ENCODING 9569
SWIDTH 500 0
DWIDTH 29 0
BBX 16 47 0 -11
BITMAP
0007
0007
0007
0007
0007
0007
0007
0007
0007
0007
0007
0007
0007
0007
0007
0007
0007
0007
FFFF
FFFF
FFFF
FFFF
0007
0007
0007
FFFF
FFFF
FFFF
FFFF
0007
0007
0007
0007
0007
0007
0007
0007
0007
0007
0007
0007
0007
0007
0007
0007
0007
0007
ENDCHAR
STARTCHAR 2562
ENCODING 9570
SWIDTH 500 0
DWIDTH 29 0
BBX 20 47 0 -11
BITMAP
0078F0
0078F0
0078F0
0078F0
0078F0
0078F0
0078F0
0078F0
0078F0
0078F0
0078F0
0078F0
0078F0
0078F0
0078F0
0078F0
0078F0
0078F0
0078F0
0078F0
0078F0
0078F0
0078F0
0078F0
0078F0
FFF8F0
FFF8F0
FFF8F0
FFF8F0
0078F0
0078F0
0078F0
0078F0
0078F0
0078F0
0078F0
0078F0
0078F0
0078F0
0078F0
0078F0
0078F0
0078F0
0078F0
0078F0
0078F0
0078F0
ENDCHAR
STARTCHAR 2563
ENCODING 9571
SWIDTH 500 0
DWIDTH 29 0
BBX 20 47 0 -11
BITMAP
0078F0
0078F0
0078F0
0078F0
0078F0
0078F0
0078F0
0078F0
0078F0
0078F0
0078F0
0078F0
0078F0
0078F0
0078F0
0078F0
0078F0
0078F0
FFF8F0
FFF8F0
FFF8F0
FFF8F0
0000F0
0000F0
0000F0
FFF8F0
FFF8F0
FFF8F0
FFF8F0
0078F0
0078F0
0078F0
0078F0
0078F0
0078F0
0078F0
0078F0
0078F0
0078F0
0078F0
0078F0
0078F0
0078F0
0078F0
0078F0
0078F0
0078F0
ENDCHAR
STARTCHAR 2564
ENCODING 9572
SWIDTH 500 0
DWIDTH 29 0
BBX 29 29 0 -11
BITMAP
FFFFFFF8
FFFFFFF8
FFFFFFF8
FFFFFFF8
00000000
00000000
00000000
FFFFFFF8
FFFFFFF8
FFFFFFF8
FFFFFFF8
00070000
00070000
00070000
00070000
00070000
00070000
00070000
00070000
00070000
00070000
00070000
00070000
00070000
00070000
00070000
00070000
00070000
00070000
ENDCHAR
STARTCHAR 2565
ENCODING 9573
SWIDTH 500 0
DWIDTH 29 0
BBX 29 22 0 -11
BITMAP
FFFFFFF8
FFFFFFF8
FFFFFFF8
FFFFFFF8
0078F000
0078F000
0078F000
0078F000
0078F000
0078F000
0078F000
0078F000
0078F000
0078F000
0078F000
0078F000
0078F000
0078F000
0078F000
0078F000
0078F000
0078F000
ENDCHAR
STARTCHAR 2566
ENCODING 9574
SWIDTH 500 0
DWIDTH 29 0
BBX 29 29 0 -11
BITMAP
FFFFFFF8
FFFFFFF8
FFFFFFF8
FFFFFFF8
00000000
00000000
00000000
FFF8FFF8
FFF8FFF8
FFF8FFF8
FFF8FFF8
0078F000
0078F000
0078F000
0078F000
0078F000
0078F000
0078F000
0078F000
0078F000
0078F000
0078F000
0078F000
0078F000
0078F000
0078F000
0078F000
0078F000
0078F000
ENDCHAR
STARTCHAR 2567
ENCODING 9575
SWIDTH 500 0
DWIDTH 29 0
BBX 29 29 0 7
BITMAP
00070000
00070000
00070000
00070000
00070000
00070000
00070000
00070000
00070000
00070000
00070000
00070000
00070000
00070000
00070000
00070000
00070000
00070000
FFFFFFF8
FFFFFFF8
FFFFFFF8
FFFFFFF8
00000000
00000000
00000000
FFFFFFF8
FFFFFFF8
FFFFFFF8
FFFFFFF8
ENDCHAR
STARTCHAR 2568
ENCODING 9576
SWIDTH 500 0
DWIDTH 29 0
BBX 29 29 0 7
BITMAP
0078F000
0078F000
0078F000
0078F000
0078F000
0078F000
0078F000
0078F000
0078F000
0078F000
0078F000
0078F000
0078F000
0078F000
0078F000
0078F000
0078F000
0078F000
0078F000
0078F000
0078F000
0078F000
0078F000
0078F000
0078F000
FFFFFFF8
FFFFFFF8
FFFFFFF8
FFFFFFF8
ENDCHAR
STARTCHAR 2569
ENCODING 9577
SWIDTH 500 0
DWIDTH 29 0
BBX 29 29 0 7
BITMAP
0078F000
0078F000
0078F000
0078F000
0078F000
0078F000
0078F000
0078F000
0078F000
0078F000
0078F000
0078F000
0078F000
0078F000
0078F000
0078F000
0078F000
0078F000
FFF8FFF8
FFF8FFF8
FFF8FFF8
FFF8FFF8
00000000
00000000
00000000
FFFFFFF8
FFFFFFF8
FFFFFFF8
FFFFFFF8
ENDCHAR
STARTCHAR 256A
ENCODING 9578
SWIDTH 500 0
DWIDTH 29 0
BBX 29 47 0 -11
BITMAP
00070000
00070000
00070000
00070000
00070000
00070000
00070000
00070000
00070000
00070000
00070000
00070000
00070000
00070000
00070000
00070000
00070000
00070000
FFFFFFF8
FFFFFFF8
FFFFFFF8
FFFFFFF8
00070000
00070000
00070000
FFFFFFF8
FFFFFFF8
FFFFFFF8
FFFFFFF8
00070000
00070000
00070000
00070000
00070000
00070000
00070000
00070000
00070000
00070000
00070000
00070000
00070000
00070000
00070000
00070000
00070000
00070000
ENDCHAR
STARTCHAR 256B
ENCODING 9579
SWIDTH 500 0
DWIDTH 29 0
BBX 29 47 0 -11
BITMAP
0078F000
0078F000
0078F000
0078F000
0078F000
0078F000
0078F000
0078F000
0078F000
0078F000
0078F000
0078F000
0078F000
0078F000
0078F000
0078F000
0078F000
0078F000
0078F000
0078F000
0078F000
0078F000
0078F000
0078F000
0078F000
FFFFFFF8
FFFFFFF8
FFFFFFF8
FFFFFFF8
0078F000
0078F000
0078F000
0078F000
0078F000
0078F000
0078F000
0078F000
0078F000
0078F000
0078F000
0078F000
0078F000
0078F000
0078F000
0078F000
0078F000
0078F000
ENDCHAR
STARTCHAR 256C
ENCODING 9580
SWIDTH 500 0
DWIDTH 29 0
BBX 29 47 0 -11
BITMAP
0078F000
0078F000
0078F000
0078F000
0078F000
0078F000
0078F000
0078F000
0078F000
0078F000
0078F000
0078F000
0078F000
0078F000
0078F000
0078F000
0078F000
0078F000
FFF8FFF8
FFF8FFF8
FFF8FFF8
FFF8FFF8
00000000
00000000
00000000
FFF8FFF8
FFF8FFF8
FFF8FFF8
FFF8FFF8
0078F000
0078F000
0078F000
0078F000
0078F000
0078F000
0078F000
0078F000
0078F000
0078F000
0078F000
0078F000
0078F000
0078F000
0078F000
0078F000
0078F000
0078F000
ENDCHAR
STARTCHAR 2580
ENCODING 9600
SWIDTH 500 0
DWIDTH 29 0
BBX 29 25 0 11
BITMAP
FFFFFFF8
FFFFFFF8
FFFFFFF8
FFFFFFF8
FFFFFFF8
FFFFFFF8
FFFFFFF8
FFFFFFF8
FFFFFFF8
FFFFFFF8
FFFFFFF8
FFFFFFF8
FFFFFFF8
FFFFFFF8
FFFFFFF8
FFFFFFF8
FFFFFFF8
FFFFFFF8
FFFFFFF8
FFFFFFF8
FFFFFFF8
FFFFFFF8
FFFFFFF8
FFFFFFF8
FFFFFFF8
ENDCHAR
STARTCHAR 2584
ENCODING 9604
SWIDTH 500 0
DWIDTH 29 0
BBX 29 22 0 -11
BITMAP
FFFFFFF8
FFFFFFF8
FFFFFFF8
FFFFFFF8
FFFFFFF8
FFFFFFF8
FFFFFFF8
FFFFFFF8
FFFFFFF8
FFFFFFF8
FFFFFFF8
FFFFFFF8
FFFFFFF8
FFFFFFF8
FFFFFFF8
FFFFFFF8
FFFFFFF8
FFFFFFF8
FFFFFFF8
FFFFFFF8
FFFFFFF8
FFFFFFF8
ENDCHAR
STARTCHAR 2588
ENCODING 9608
SWIDTH 500 0
DWIDTH 29 0
BBX 29 47 0 -11
BITMAP
FFFFFFF8
FFFFFFF8
FFFFFFF8
FFFFFFF8
FFFFFFF8
FFFFFFF8
FFFFFFF8
FFFFFFF8
FFFFFFF8
FFFFFFF8
FFFFFFF8
FFFFFFF8
FFFFFFF8
FFFFFFF8
FFFFFFF8
FFFFFFF8
FFFFFFF8
FFFFFFF8
FFFFFFF8
FFFFFFF8
FFFFFFF8
FFFFFFF8
FFFFFFF8
FFFFFFF8
FFFFFFF8
FFFFFFF8
FFFFFFF8
FFFFFFF8
FFFFFFF8
FFFFFFF8
FFFFFFF8
FFFFFFF8
FFFFFFF8
FFFFFFF8
FFFFFFF8
FFFFFFF8
FFFFFFF8
FFFFFFF8
FFFFFFF8
FFFFFFF8
FFFFFFF8
FFFFFFF8
FFFFFFF8
FFFFFFF8
FFFFFFF8
FFFFFFF8
FFFFFFF8
ENDCHAR
STARTCHAR 258C
ENCODING 9612
SWIDTH 500 0
DWIDTH 29 0
BBX 15 47 0 -11
BITMAP
FFFE
FFFE
FFFE
FFFE
FFFE
FFFE
FFFE
FFFE
FFFE
FFFE
FFFE
FFFE
FFFE
FFFE
FFFE
FFFE
FFFE
FFFE
FFFE
FFFE
FFFE
FFFE
FFFE
FFFE
FFFE
FFFE
FFFE
FFFE
FFFE
FFFE
FFFE
FFFE
FFFE
FFFE
FFFE
FFFE
FFFE
FFFE
FFFE
FFFE
FFFE
FFFE
FFFE
FFFE
FFFE
FFFE
FFFE
ENDCHAR
STARTCHAR 2590
ENCODING 9616
SWIDTH 500 0
DWIDTH 29 0
BBX 15 47 14 -11
BITMAP
FFFE
FFFE
FFFE
FFFE
FFFE
FFFE
FFFE
FFFE
FFFE
FFFE
FFFE
FFFE
FFFE
FFFE
FFFE
FFFE
FFFE
FFFE
FFFE
FFFE
FFFE
FFFE
FFFE
FFFE
FFFE
FFFE
FFFE
FFFE
FFFE
FFFE
FFFE
FFFE
FFFE
FFFE
FFFE
FFFE
FFFE
FFFE
FFFE
FFFE
FFFE
FFFE
FFFE
FFFE
FFFE
FFFE
FFFE
ENDCHAR
STARTCHAR 2591
ENCODING 9617
SWIDTH 500 0
DWIDTH 29 0
BBX 25 47 2 -11
BITMAP
01E00380
01E00380
01E00380
E003C000
E003C000
E003C000
E003C000
01E00380
01E00380
01E00380
01E00380
E003C000
E003C000
E003C000
01E00380
01E00380
01E00380
01E00380
E003C000
E003C000
E003C000
E1E3C380
01E00380
01E00380
01E00380
E003C000
E003C000
E003C000
E003C000
01E00380
01E00380
01E00380
E003C000
E003C000
E003C000
E003C000
01E00380
01E00380
01E00380
01E00380
E003C000
E003C000
E003C000
01E00380
01E00380
01E00380
01E00380
ENDCHAR
STARTCHAR 2592
ENCODING 9618
SWIDTH 500 0
DWIDTH 29 0
BBX 29 47 0 -11
BITMAP
0E1E3C78
0E1E3C78
0E1E3C78
F1E3C380
F1E3C380
F1E3C380
F1E3C380
0E1E3C78
0E1E3C78
0E1E3C78
0E1E3C78
F1E3C380
F1E3C380
F1E3C380
0E1E3C78
0E1E3C78
0E1E3C78
0E1E3C78
F1E3C380
F1E3C380
F1E3C380
FFFFFFF8
0E1E3C78
0E1E3C78
0E1E3C78
F1E3C380
F1E3C380
F1E3C380
F1E3C380
0E1E3C78
0E1E3C78
0E1E3C78
F1E3C380
F1E3C380
F1E3C380
F1E3C380
0E1E3C78
0E1E3C78
0E1E3C78
0E1E3C78
F1E3C380
F1E3C380
F1E3C380
0E1E3C78
0E1E3C78
0E1E3C78
0E1E3C78
ENDCHAR
STARTCHAR 2593
ENCODING 9619
SWIDTH 500 0
DWIDTH 29 0
BBX 29 47 0 -11
BITMAP
F87E3F00
F87E3F00
F87E3F00
07E3F0F8
07E3F0F8
07E3F0F8
07E3F0F8
F87E3F00
F87E3F00
F87E3F00
F87E3F00
07E3F0F8
07E3F0F8
07E3F0F8
F87E3F00
F87E3F00
F87E3F00
F87E3F00
07E3F0F8
07E3F0F8
07E3F0F8
FFFFFFF8
F87E3F00
F87E3F00
F87E3F00
07E3F0F8
07E3F0F8
07E3F0F8
07E3F0F8
F87E3F00
F87E3F00
F87E3F00
07E3F0F8
07E3F0F8
07E3F0F8
07E3F0F8
F87E3F00
F87E3F00
F87E3F00
F87E3F00
07E3F0F8
07E3F0F8
07E3F0F8
F87E3F00
F87E3F00
F87E3F00
F87E3F00
ENDCHAR
STARTCHAR 25A0
ENCODING 9632
SWIDTH 500 0
DWIDTH 29 0
BBX 15 21 7 4
BITMAP
FFFE
FFFE
FFFE
FFFE
FFFE
FFFE
FFFE
FFFE
FFFE
FFFE
FFFE
FFFE
FFFE
FFFE
FFFE
FFFE
FFFE
FFFE
FFFE
FFFE
FFFE
ENDCHAR
STARTCHAR 25AC
ENCODING 9644
SWIDTH 500 0
DWIDTH 29 0
BBX 21 11 4 0
BITMAP
FFFFF8
FFFFF8
FFFFF8
FFFFF8
FFFFF8
FFFFF8
FFFFF8
FFFFF8
FFFFF8
FFFFF8
FFFFF8
ENDCHAR
STARTCHAR 25B2
ENCODING 9650
SWIDTH 500 0
DWIDTH 29 0
BBX 21 21 4 4
BITMAP
007000
007000
007000
01FC00
01FC00
01FC00
01FC00
07FF00
07FF00
07FF00
1FFFC0
1FFFC0
1FFFC0
1FFFC0
7FFFF0
7FFFF0
7FFFF0
7FFFF0
FFFFF8
FFFFF8
FFFFF8
ENDCHAR
STARTCHAR 25BA
ENCODING 9658
SWIDTH 500 0
DWIDTH 29 0
BBX 21 33 4 0
BITMAP
E00000
E00000
E00000
E00000
FE0000
FE0000
FE0000
FE0000
FFE000
FFE000
FFE000
FFFF00
FFFF00
FFFF00
FFFF00
FFFFF8
FFFFF8
FFFFF8
FFFFF8
FFFF00
FFFF00
FFFF00
FFE000
FFE000
FFE000
FFE000
FE0000
FE0000
FE0000
E00000
E00000
E00000
E00000
ENDCHAR
STARTCHAR 25BC
ENCODING 9660
SWIDTH 500 0
DWIDTH 29 0
BBX 21 21 4 4
BITMAP
FFFFF8
FFFFF8
FFFFF8
7FFFF0
7FFFF0
7FFFF0
7FFFF0
1FFFC0
1FFFC0
1FFFC0
1FFFC0
07FF00
07FF00
07FF00
01FC00
01FC00
01FC00
01FC00
007000
007000
007000
ENDCHAR
STARTCHAR 25C4
ENCODING 9668
SWIDTH 500 0
DWIDTH 29 0
BBX 21 33 4 0
BITMAP
000038
000038
000038
000038
0003F8
0003F8
0003F8
0003F8
003FF8
003FF8
003FF8
07FFF8
07FFF8
07FFF8
07FFF8
FFFFF8
FFFFF8
FFFFF8
FFFFF8
07FFF8
07FFF8
07FFF8
003FF8
003FF8
003FF8
003FF8
0003F8
0003F8
0003F8
000038
000038
000038
000038
ENDCHAR
STARTCHAR 25CB
ENCODING 9675
SWIDTH 500 0
DWIDTH 29 0
BBX 21 18 4 4
BITMAP
07FF00
07FF00
07FF00
07FF00
7800F0
7800F0
7800F0
F800F8
E00038
E00038
E00038
7800F0
7800F0
7800F0
7800F0
07FF00
07FF00
07FF00
ENDCHAR
STARTCHAR 25D8
ENCODING 9688
SWIDTH 500 0
DWIDTH 29 0
BBX 29 47 0 -11
BITMAP
FFFFFFF8
FFFFFFF8
FFFFFFF8
FFFFFFF8
FFFFFFF8
FFFFFFF8
FFFFFFF8
FFFFFFF8
FFFFFFF8
FFFFFFF8
FFFFFFF8
FFFFFFF8
FFFFFFF8
FFFFFFF8
FFFFFFF8
FFFFFFF8
FFFFFFF8
FFFFFFF8
FF800FF8
FF800FF8
FF800FF8
FF800FF8
FE0003F8
FE0003F8
FE0003F8
FF800FF8
FF800FF8
FF800FF8
FF800FF8
FFFFFFF8
FFFFFFF8
FFFFFFF8
FFFFFFF8
FFFFFFF8
FFFFFFF8
FFFFFFF8
FFFFFFF8
FFFFFFF8
FFFFFFF8
FFFFFFF8
FFFFFFF8
FFFFFFF8
FFFFFFF8
FFFFFFF8
FFFFFFF8
FFFFFFF8
FFFFFFF8
ENDCHAR
STARTCHAR 25D9
ENCODING 9689
SWIDTH 500 0
DWIDTH 29 0
BBX 29 47 0 -11
BITMAP
FFFFFFF8
FFFFFFF8
FFFFFFF8
FFFFFFF8
FFFFFFF8
FFFFFFF8
FFFFFFF8
FFFFFFF8
FFFFFFF8
FFFFFFF8
FFFFFFF8
FFFFFFF8
FFFFFFF8
FFFFFFF8
FF800FF8
FF800FF8
FF800FF8
FF800FF8
F87FF0F8
F87FF0F8
F87FF0F8
F9FFFCF8
F1FFFC78
F1FFFC78
F1FFFC78
F87FF0F8
F87FF0F8
F87FF0F8
F87FF0F8
FF800FF8
FF800FF8
FF800FF8
FFFFFFF8
FFFFFFF8
FFFFFFF8
FFFFFFF8
FFFFFFF8
FFFFFFF8
FFFFFFF8
FFFFFFF8
FFFFFFF8
FFFFFFF8
FFFFFFF8
FFFFFFF8
FFFFFFF8
FFFFFFF8
FFFFFFF8
ENDCHAR
STARTCHAR 263A
ENCODING 9786
SWIDTH 500 0
DWIDTH 29 0
BBX 21 33 4 0
BITMAP
1FFFC0
1FFFC0
1FFFC0
1FFFC0
E00038
E00038
E00038
E00038
E78F38
E78F38
E78F38
E00038
E00038
E00038
E00038
E00038
E00038
E00038
E7FF38
E7FF38
E7FF38
E7FF38
E07038
E07038
E07038
E07038
E00038
E00038
E00038
1FFFC0
1FFFC0
1FFFC0
1FFFC0
ENDCHAR
STARTCHAR 263B
ENCODING 9787
SWIDTH 500 0
DWIDTH 29 0
BBX 21 33 4 0
BITMAP
1FFFC0
1FFFC0
1FFFC0
1FFFC0
FFFFF8
FFFFF8
FFFFF8
FFFFF8
F870F8
F870F8
F870F8
FFFFF8
FFFFF8
FFFFF8
FFFFF8
FFFFF8
FFFFF8
FFFFF8
FFFFF8
F800F8
F800F8
F800F8
FF8FF8
FF8FF8
FF8FF8
FF8FF8
FFFFF8
FFFFF8
FFFFF8
1FFFC0
1FFFC0
1FFFC0
1FFFC0
ENDCHAR
STARTCHAR 263C
ENCODING 9788
SWIDTH 500 0
DWIDTH 29 0
BBX 21 33 4 0
BITMAP
007000
007000
007000
007000
007000
007000
007000
007000
7870F0
7870F0
7870F0
01FC00
01FC00
01FC00
01FC00
FF8FF8
FF8FF8
FF8FF8
FFFFF8
01FC00
01FC00
01FC00
7870F0
7870F0
7870F0
7870F0
007000
007000
007000
007000
007000
007000
007000
ENDCHAR
STARTCHAR 2640
ENCODING 9792
SWIDTH 500 0
DWIDTH 29 0
BBX 19 33 5 0
BITMAP
03F800
03F800
03F800
03F800
3C0780
3C0780
3C0780
3C0780
F001E0
F001E0
F001E0
3C0780
3C0780
3C0780
3C0780
03F800
03F800
03F800
03F800
00E000
00E000
00E000
3FFF80
3FFF80
3FFF80
3FFF80
00E000
00E000
00E000
00E000
00E000
00E000
00E000
ENDCHAR
STARTCHAR 2642
ENCODING 9794
SWIDTH 500 0
DWIDTH 29 0
BBX 21 33 4 0
BITMAP
003FF0
003FF0
003FF0
003FF0
000F38
000F38
000F38
000F38
007000
007000
007000
078000
078000
078000
078000
1FFC00
1FFC00
1FFC00
7FFFC0
7803C0
7803C0
7803C0
E000F0
E000F0
E000F0
E000F0
7803C0
7803C0
7803C0
07FC00
07FC00
07FC00
07FC00
ENDCHAR
STARTCHAR 2660
ENCODING 9824
SWIDTH 500 0
DWIDTH 29 0
BBX 21 33 4 0
BITMAP
007000
007000
007000
007000
01FC00
01FC00
01FC00
01FC00
07FF00
07FF00
07FF00
7FFFF0
7FFFF0
7FFFF0
7FFFF0
FFFFF8
FFFFF8
FFFFF8
FFFFF8
7FFFF0
7FFFF0
7FFFF0
007000
007000
007000
007000
007000
007000
007000
07FF00
07FF00
07FF00
07FF00
ENDCHAR
STARTCHAR 2663
ENCODING 9827
SWIDTH 500 0
DWIDTH 29 0
BBX 21 33 4 0
BITMAP
007000
007000
007000
007000
07FF00
07FF00
07FF00
07FF00
07FF00
07FF00
07FF00
FE03F8
FE03F8
FE03F8
FE03F8
FE03F8
FE03F8
FE03F8
FE03F8
FE03F8
FE03F8
FE03F8
01FC00
01FC00
01FC00
01FC00
01FC00
01FC00
01FC00
07FF00
07FF00
07FF00
07FF00
ENDCHAR
STARTCHAR 2665
ENCODING 9829
SWIDTH 500 0
DWIDTH 29 0
BBX 21 29 4 0
BITMAP
1F8FC0
1F8FC0
1F8FC0
1F8FC0
7FFFF0
7FFFF0
7FFFF0
FFFFF8
FFFFF8
FFFFF8
FFFFF8
FFFFF8
FFFFF8
FFFFF8
FFFFF8
7FFFF0
7FFFF0
7FFFF0
1FFFC0
1FFFC0
1FFFC0
1FFFC0
01FC00
01FC00
01FC00
007000
007000
007000
007000
ENDCHAR
STARTCHAR 2666
ENCODING 9830
SWIDTH 500 0
DWIDTH 29 0
BBX 21 25 4 4
BITMAP
007000
007000
007000
007000
01FC00
01FC00
01FC00
1FFFC0
1FFFC0
1FFFC0
1FFFC0
FFFFF8
FFFFF8
FFFFF8
FFFFF8
1FFFC0
1FFFC0
1FFFC0
01FC00
01FC00
01FC00
01FC00
007000
007000
007000
ENDCHAR
STARTCHAR 266A
ENCODING 9834
SWIDTH 500 0
DWIDTH 29 0
BBX 21 33 4 0
BITMAP
007F00
007F00
007F00
007F00
0070F0
0070F0
0070F0
0070F0
007038
007038
007038
007038
007038
007038
007038
0070F0
0070F0
0070F0
0070F0
007000
007000
007000
7FF000
7FF000
7FF000
7FF000
FFF000
FFF000
FFF000
7FE000
7FE000
7FE000
7FE000
ENDCHAR
STARTCHAR 266B
ENCODING 9835
SWIDTH 500 0
DWIDTH 29 0
BBX 21 33 4 0
BITMAP
07F000
07F000
07F000
07F000
078F00
078F00
078F00
078F00
0780F0
0780F0
0780F0
078038
078038
078038
078038
7F8038
7F8038
7F8038
FF8038
FF8038
FF8038
FF8038
7E03F8
7E03F8
7E03F8
7E03F8
000FF8
000FF8
000FF8
0003F0
0003F0
0003F0
0003F0
ENDCHAR
ENDFONT
